<svg xmlns:xlink="http://www.w3.org/1999/xlink" xmlns="http://www.w3.org/2000/svg" fill="none" viewBox="0 0 1920 1920" height="1920" width="1920">
<rect fill="white" height="1920" width="1920"/>
<g clip-path="url(#clip0_900_64206)">
<path fill="black" d="M527.232 897.732H583.646C609.251 897.732 625.855 912.742 625.855 933.151C625.855 947.56 618.054 957.966 605.85 963.167C621.853 967.771 633.257 980.779 633.257 997.786C633.257 1021.2 616.654 1037.81 587.846 1037.81H527.232V897.728V897.732ZM579.246 955.765C591.247 955.765 600.05 949.363 600.05 936.554C600.05 923.744 590.647 917.943 579.048 917.943H553.442V955.765H579.246ZM583.646 1017.6C596.248 1017.6 606.853 1011.2 606.853 996.39C606.853 981.579 596.252 974.977 582.647 974.977H553.438V1017.6H583.646Z"/>
<path fill="black" d="M641.154 987.186C641.154 956.167 657.758 933.752 685.964 933.752C700.368 933.752 711.168 940.358 717.97 951.762V936.554H742.577V1037.81H717.97V1022.61C711.168 1033.81 700.364 1040.62 685.964 1040.62C657.758 1040.62 641.154 1018.2 641.154 987.182V987.186ZM691.967 1020.01C708.57 1020.01 717.572 1006.6 717.572 987.186C717.572 967.771 708.57 954.365 691.967 954.365C675.364 954.365 666.362 967.771 666.362 987.186C666.362 1006.6 675.562 1020.01 691.967 1020.01Z"/>
<path fill="black" d="M760.557 936.553H785.164V952.562C790.963 940.557 803.366 933.951 816.37 933.951C840.177 933.951 852.576 948.36 852.576 972.976V1037.81H827.368V977.377C827.368 962.968 821.366 954.564 808.163 954.564C793.958 954.564 785.756 965.371 785.756 983.779V1037.81H760.553V936.553H760.557Z"/>
<path fill="black" d="M866.577 1044.22H892.182C894.585 1052.02 901.785 1057.23 914.188 1057.23C931.193 1057.23 937.995 1046.62 937.995 1031.01V1019.6C931.392 1028.41 921.391 1033.61 908.587 1033.61C880.981 1033.61 864.576 1012.8 864.576 983.784C864.576 954.767 880.981 933.752 908.587 933.752C921.992 933.752 932.191 939.757 938.794 949.562V936.554H963.198V1030.81C963.198 1060.03 943.794 1076.64 913.786 1076.64C886.979 1076.64 869.576 1064.03 866.573 1044.22H866.577ZM914.39 1013.2C930.194 1013.2 939.196 1001.2 939.196 983.784C939.196 966.37 930.194 954.365 914.39 954.365C898.587 954.365 889.784 966.37 889.784 983.784C889.784 1001.2 898.785 1013.2 914.39 1013.2Z"/>
<path fill="black" d="M1006.47 988.586V1037.82H981.262V897.736H1006.47V978.185L1042.68 936.558H1072.88L1031.67 982.387L1078.28 1037.82H1047.28L1006.47 988.591L1006.47 988.586Z"/>
<path fill="black" d="M1071.72 987.186C1071.72 956.167 1090.72 933.553 1123.13 933.553C1155.54 933.553 1174.14 956.167 1174.14 987.186C1174.14 1018.2 1155.34 1040.82 1123.13 1040.82C1090.92 1040.82 1071.72 1018.2 1071.72 987.186ZM1123.13 1020.4C1139.93 1020.4 1148.94 1006.6 1148.94 987.186C1148.94 967.775 1139.93 953.967 1123.13 953.967C1106.33 953.967 1096.93 967.974 1096.93 987.186C1096.93 1006.4 1106.13 1020.4 1123.13 1020.4Z"/>
<path fill="black" d="M1211.99 988.586V1037.82H1186.78V897.736H1211.99V978.185L1248.19 936.558H1278.4L1237.19 982.387L1283.8 1037.82H1252.8L1211.99 988.591V988.586Z"/>
<path fill="black" d="M1335.01 897.732H1391.43C1417.03 897.732 1433.63 912.742 1433.63 933.151C1433.63 947.56 1425.83 957.966 1413.63 963.167C1429.63 967.771 1441.04 980.779 1441.04 997.786C1441.04 1021.2 1424.43 1037.81 1395.63 1037.81H1335.01V897.728V897.732ZM1387.03 955.765C1399.03 955.765 1407.83 949.363 1407.83 936.554C1407.83 923.744 1398.43 917.943 1386.82 917.943H1361.22V955.765H1387.03ZM1391.43 1017.6C1404.03 1017.6 1414.64 1011.2 1414.64 996.39C1414.64 981.579 1404.04 974.977 1390.43 974.977H1361.22V1017.6H1391.43Z"/>
<path fill="black" d="M1448.93 987.186C1448.93 956.167 1465.54 933.752 1493.74 933.752C1508.15 933.752 1518.95 940.358 1525.75 951.762V936.554H1550.36V1037.81H1525.75V1022.61C1518.95 1033.81 1508.15 1040.62 1493.74 1040.62C1465.54 1040.62 1448.93 1018.2 1448.93 987.182V987.186ZM1499.75 1020.01C1516.35 1020.01 1525.35 1006.6 1525.35 987.186C1525.35 967.771 1516.35 954.365 1499.75 954.365C1483.14 954.365 1474.14 967.771 1474.14 987.186C1474.14 1006.6 1483.35 1020.01 1499.75 1020.01Z"/>
<path fill="black" d="M1568.34 936.553H1592.94V952.562C1598.74 940.557 1611.15 933.951 1624.15 933.951C1647.96 933.951 1660.36 948.36 1660.36 972.976V1037.81H1635.15V977.377C1635.15 962.968 1629.15 954.564 1615.95 954.564C1601.74 954.564 1593.54 965.371 1593.54 983.779V1037.81H1568.34V936.553Z"/>
<path fill="black" d="M1703.18 988.586V1037.82H1677.98V897.736H1703.18V978.185L1739.39 936.558H1769.6L1728.39 982.387L1775 1037.82H1744L1703.19 988.591L1703.18 988.586Z"/>
<path fill="black" d="M420.472 918.893L297.195 757L173.917 918.893C153.117 946.298 145 970.15 145 996.032C145 1035.62 164.785 1071.14 200.297 1096.01L297.195 1163L394.092 1096.01C429.604 1071.14 449.389 1035.62 449.389 996.032C449.389 970.15 441.272 946.298 420.472 918.893ZM277.409 1089.41V1113.26L218.053 1072.66C190.151 1053.89 174.424 1025.98 174.424 997.555C174.424 982.837 178.483 968.627 185.585 955.432C188.629 964.06 193.702 972.688 204.863 985.375L267.77 1055.41C277.917 1067.08 277.409 1074.19 277.409 1089.41ZM230.736 970.15C215.01 952.895 211.966 943.252 211.966 933.102C211.966 922.952 213.995 914.832 226.17 899.1L297.195 806.735L368.219 899.1C379.887 914.832 382.424 923.46 382.424 933.102C382.424 943.252 379.38 952.895 363.653 970.15L297.195 1044.24L230.736 970.15ZM376.336 1072.66L316.98 1113.26V1089.41C316.98 1074.19 316.473 1067.08 326.619 1055.41L389.526 985.375C400.687 972.688 405.76 964.06 408.804 955.432C415.906 968.627 419.965 982.837 419.965 997.555C419.965 1025.98 404.238 1053.89 376.336 1072.66Z"/>
</g>
<defs>
<clipPath id="clip0_900_64206">
<rect transform="translate(145 757)" fill="white" height="406" width="1630"/>
</clipPath>
</defs>
</svg>