<svg xmlns:xlink="http://www.w3.org/1999/xlink" xmlns="http://www.w3.org/2000/svg" fill="none" viewBox="0 0 1920 1920" height="1920" width="1920">
<rect fill="white" height="1920" width="1920"/>
<path fill="black" d="M1342.95 931.744C1325.19 935.843 1278.27 938.121 1278.27 938.121L1272.5 956.643C1272.5 956.643 1295.73 954.669 1312.74 956.339C1312.74 956.339 1318.2 955.884 1318.81 962.412C1319.11 969.092 1318.36 976.076 1318.36 976.076C1318.36 976.076 1317.9 980.175 1312.28 981.238C1305.75 982.301 1261.72 984.275 1261.72 984.275L1254.58 1008.26C1254.58 1008.26 1252 1013.73 1257.92 1012.21C1263.39 1010.69 1309.55 1001.89 1315.62 1003.1C1322 1004.62 1329.29 1013.42 1327.16 1021.32C1324.73 1030.88 1278.57 1060.34 1250.63 1058.36C1250.63 1058.36 1235.9 1059.28 1223.6 1039.39C1211.76 1020.41 1227.7 984.73 1227.7 984.73C1227.7 984.73 1220.57 968.03 1225.88 961.957C1225.88 961.957 1228.92 959.376 1238.03 958.617L1249.42 935.236C1249.42 935.236 1236.51 935.995 1228.92 926.582C1221.93 917.473 1221.33 913.525 1226.79 911.096C1232.56 908.06 1286.01 898.495 1322.76 899.709C1322.76 899.709 1335.67 898.191 1347.05 920.509C1347.05 920.509 1352.22 929.619 1343.11 931.744M1204.47 1021.62C1199.92 1032.71 1187.31 1044.4 1172.13 1037.26C1156.64 1029.97 1132.19 980.175 1132.19 980.175C1132.19 980.175 1123.08 961.653 1121.26 962.26C1121.26 962.26 1119.29 958.617 1118.22 978.961C1116.7 999.153 1118.53 1038.48 1110.18 1044.7C1102.58 1050.77 1093.47 1048.19 1088.31 1041.06C1084.06 1033.92 1082.24 1016.76 1084.67 986.856C1087.4 956.947 1094.23 925.064 1102.89 915.195C1112 905.175 1119.29 912.463 1122.02 915.195C1122.02 915.195 1133.71 925.823 1153.45 957.25L1156.79 963.019C1156.79 963.019 1174.71 992.929 1176.53 992.777C1176.53 992.777 1178.05 994.295 1179.26 993.08C1181.09 992.625 1180.48 982.908 1180.48 982.908C1180.48 982.908 1177.14 950.57 1160.44 895.914C1160.44 895.914 1158.01 888.93 1159.68 882.25C1161.2 876.177 1167.72 879.213 1167.72 879.213C1167.72 879.213 1192.93 891.359 1205.23 932.351C1217.38 973.343 1209.18 1010.54 1204.62 1021.62M1080.87 916.41C1078.44 920.661 1077.38 926.582 1066.9 928.252C1066.9 928.252 965.163 935.388 960.152 942.523C960.152 942.523 956.811 946.774 962.278 947.837C968.048 949.052 991.128 952.088 1002.06 952.696C1013.91 952.696 1053.69 952.999 1068.27 970.914C1068.27 970.914 1076.62 979.416 1076.31 998.698C1076.01 1018.43 1072.52 1025.42 1064.77 1032.55C1056.73 1039.23 987.788 1070.21 943.297 1022.84C943.297 1022.84 922.95 1000.06 950.434 982.756C950.434 982.756 970.174 970.611 1020.74 984.73C1020.74 984.73 1035.92 990.196 1035.32 995.813C1034.4 1001.89 1022.71 1007.96 1005.71 1007.66C989.306 1007.2 977.159 999.305 979.588 1000.67C981.866 1001.43 961.822 990.955 955.597 998.091C949.523 1004.77 951.041 1008.72 957.115 1012.82C972.3 1021.62 1031.97 1018.43 1049.74 998.546C1049.74 998.546 1056.88 990.499 1046.1 983.971C1035.47 977.898 1004.49 974.103 992.495 973.647C981.107 973.04 938.438 973.647 932.06 962.564C932.06 962.564 925.987 954.669 932.668 933.11C939.653 910.337 989.306 901.531 1010.87 899.709C1010.87 899.709 1070.09 897.28 1081.17 909.426C1081.17 909.426 1082.69 912.159 1080.87 916.258M912.928 1049.86C905.791 1055.18 890.607 1052.9 886.203 1046.83C881.951 1041.51 880.433 1020.56 881.192 987.615C882.255 953.91 882.711 912.614 890.303 905.934C897.895 899.406 902.451 905.175 905.488 909.578C908.524 914.133 912.472 919.143 913.08 929.619C913.991 940.246 916.572 994.902 916.572 994.902C916.572 994.902 919.913 1044.7 913.08 1049.86M928.112 872.23C907.158 879.365 892.884 877.088 880.737 871.774C875.422 881.339 872.233 884.224 868.285 884.831C862.212 885.438 856.897 875.721 856.138 872.685C854.923 870.408 852.038 866.309 855.53 857.047C843.686 846.42 842.775 832.148 844.901 822.584C847.634 811.349 867.678 769.142 928.416 764.132C928.416 764.132 958.178 762.006 963.341 777.796H964.252C964.252 777.796 993.102 777.796 992.495 803.606C992.495 829.416 960.607 861.602 928.112 872.685M955.141 798.747C936.008 801.784 906.55 827.29 892.429 848.393C914.143 852.341 952.104 850.823 969.111 816.511C969.111 816.511 977.159 794.952 955.141 798.747ZM871.17 815.448C865.097 825.316 864.793 831.237 867.678 835.185C874.815 824.557 887.418 807.857 906.399 794.8C891.821 796.318 879.522 802.391 871.17 815.448ZM1388.51 1048.8C1374.54 1083.11 1362.69 1117.88 1355.86 1169.95C1355.86 1169.95 1354.34 1180.13 1345.99 1176.79C1337.64 1173.75 1323.97 1160.09 1320.94 1140.8C1317.9 1115.6 1329.14 1073.09 1352.07 1024.2C1345.38 1013.58 1340.68 997.787 1344.47 975.621C1344.47 975.621 1350.55 934.629 1391.54 897.584C1391.54 897.584 1396.4 893.485 1399.14 894.851C1402.48 896.369 1401.11 909.426 1398.38 916.106C1395.95 922.483 1377.73 954.062 1377.73 954.062C1377.73 954.062 1366.34 975.621 1369.53 992.473C1391.09 959.376 1440.14 892.27 1470.5 913.525C1489.79 927.189 1489.79 971.218 1475.36 996.724C1463.98 1016.92 1431.78 1058.67 1388.81 1048.95M1451.98 945.712C1440.74 957.858 1420.7 980.935 1404.91 1012.21C1421.61 1010.39 1437.86 1001.13 1442.87 996.42C1450.92 989.285 1469.44 970.003 1466.56 944.497C1466.56 944.497 1464.73 931.137 1451.98 945.712ZM771.712 1066.71C717.958 1083.11 667.242 1075.52 639.606 1068.23C638.847 1079.47 637.632 1084.17 635.81 1086C633.684 1088.42 616.07 1098.45 606.352 1084.17C602.1 1077.34 599.974 1065.04 598.76 1053.81C536.503 1025.57 507.652 983.971 506.741 982.453C505.223 980.935 491.101 966.208 505.223 947.989C518.433 931.592 562.165 915.044 601.341 908.515C602.859 875.114 606.504 849.304 611.211 837.918C616.829 824.254 623.966 836.399 630.343 845.509C635.506 852.341 638.695 881.643 638.999 905.023C664.509 903.809 679.997 905.631 708.392 911.096C745.746 917.473 770.649 936.602 768.675 958.161C766.853 979.416 747.416 988.222 739.824 988.829C732.232 989.437 720.084 983.819 720.084 983.819C711.581 979.872 719.325 976.228 729.195 971.977C740.128 966.663 737.698 961.349 737.698 961.349C733.75 949.204 685.312 941.157 637.177 941.157C637.177 967.726 638.239 1011.75 638.999 1037.41C672.708 1043.79 697.915 1042.42 697.915 1042.42C697.915 1042.42 820.91 1038.93 824.402 960.439C828.198 881.794 701.407 806.49 608.022 782.806C514.789 758.363 461.947 775.67 457.391 777.948C452.381 780.377 456.936 781.288 456.936 781.288C456.936 781.288 461.947 782.047 471.058 785.083C480.168 788.12 472.88 792.675 472.88 792.675C456.936 798.14 439.17 794.952 435.678 787.664C432.185 780.529 437.955 774 444.788 764.436C451.166 754.567 458.454 754.871 458.454 754.871C573.857 714.638 714.77 786.753 714.77 786.753C846.571 853.252 869.045 931.44 866.615 961.805C864.489 991.714 852.949 1042.27 771.712 1066.87M518.13 958.161C505.071 964.234 514.182 973.951 514.182 973.951C538.781 1000.22 568.846 1016.76 597.697 1027.09C601.037 981.542 600.734 965.297 600.734 942.372C556.091 945.408 530.277 952.696 518.13 958.161Z"/>
</svg>