<svg xmlns:xlink="http://www.w3.org/1999/xlink" xmlns="http://www.w3.org/2000/svg" fill="none" viewBox="0 0 1920 1920" height="1920" width="1920">
<rect fill="white" height="1920" width="1920"/>
<g clip-path="url(#clip0_603_60373)">
<path fill="black" d="M1276.94 1060.65H1179.86C1183.94 1055.76 1187.2 1050.06 1188.83 1044.35L1246.76 886.215V885.4C1249.2 880.509 1250.02 874.803 1250.02 869.097H1414C1413.18 873.987 1414 878.063 1416.45 882.139C1416.45 882.954 1417.26 883.769 1417.26 885.4C1422.16 896.812 1474.37 1031.31 1478.44 1043.53C1480.08 1049.24 1483.34 1054.95 1487.42 1059.84H1364.23C1364.23 1054.13 1363.42 1048.43 1360.16 1043.53C1360.16 1043.53 1358.52 1038.64 1355.26 1032.94L1354.44 1030.49H1283.47L1282.65 1033.75C1282.65 1033.75 1280.21 1039.46 1278.57 1044.35L1277.76 1045.98C1277.76 1050.06 1276.94 1054.95 1276.94 1060.65ZM1320.18 933.492C1319.36 937.567 1318.55 941.644 1316.92 945.719C1316.92 946.534 1314.47 952.24 1312.02 960.392C1308.76 968.542 1305.5 979.139 1301.42 990.552H1342.21L1325.07 946.534C1321.81 941.644 1321 937.567 1320.18 933.492ZM729.534 1060.65H612.057C614.505 1055.76 615.321 1050.06 614.505 1044.35V885.4C615.321 879.693 613.688 873.987 612.057 869.097H729.534C727.086 873.987 726.27 879.693 727.086 885.4V954.685C727.086 954.685 764.614 906.593 773.588 895.18C776.851 891.105 787.456 875.618 787.456 869.097H909.828C900.038 876.433 891.88 884.584 884.537 893.55C878.011 901.702 839.668 947.349 839.668 947.349C839.668 947.349 895.959 1031.31 903.302 1043.53C907.38 1049.24 912.276 1054.95 917.17 1059.84H776.851C775.219 1050.87 771.14 1041.9 765.429 1034.57C759.719 1026.42 730.35 982.4 727.086 977.509V1044.35C726.27 1049.24 727.086 1054.95 729.534 1060.65ZM1165.18 1060.65H938.381C940.828 1055.76 941.644 1050.06 940.828 1044.35V885.4C941.644 879.693 940.013 873.987 938.381 869.097H1165.18V922.08C1160.28 919.635 1154.57 918.82 1148.86 919.635H1052.59V944.904H1144.78V985.66H1052.59V1010.93H1148.04C1153.75 1011.74 1159.47 1010.11 1164.36 1008.48L1165.18 1060.65ZM556.582 1060.65H428.5C430.948 1055.76 431.763 1050.06 430.948 1044.35V885.4C431.763 879.693 430.131 873.987 428.5 869.097H556.582C554.135 873.987 553.319 879.693 554.135 885.4V1043.53C553.319 1049.24 554.135 1054.95 556.582 1060.65ZM1466.21 909.853C1458.87 909.853 1452.34 906.593 1447.45 901.702C1442.55 896.812 1440.1 890.29 1440.92 883.769V882.139C1440.92 869.097 1452.34 858.5 1465.4 858.5H1467.02C1480.89 858.5 1491.5 869.912 1491.5 883.769V885.4C1491.5 891.92 1488.23 898.442 1484.16 902.517C1478.44 907.408 1472.74 909.853 1466.21 909.853ZM1464.58 864.206C1459.68 864.206 1454.79 866.652 1450.71 870.727C1447.45 874.803 1445 879.693 1445.81 884.584V886.215C1445.81 896.812 1454.79 905.777 1466.21 905.777H1467.02C1472.74 905.777 1477.63 903.332 1481.71 899.257C1485.79 895.18 1487.42 890.29 1487.42 884.584V883.769C1487.42 873.172 1478.44 864.206 1467.02 864.206H1464.58ZM1460.5 899.257H1456.43V869.097H1467.84C1473.55 869.097 1477.63 873.172 1477.63 878.878C1477.63 882.954 1475.19 886.215 1471.92 887.845L1478.44 899.257H1473.55L1467.84 888.66H1461.31L1460.5 899.257ZM1460.5 873.987V884.584H1467.02C1469.47 884.584 1471.92 882.139 1471.92 879.693C1471.92 876.433 1469.47 873.987 1467.02 873.987H1460.5Z"/>
</g>
<defs>
<clipPath id="clip0_603_60373">
<rect transform="translate(428.5 858.5)" fill="white" height="203" width="1063"/>
</clipPath>
</defs>
</svg>