<svg xmlns:xlink="http://www.w3.org/1999/xlink" viewBox="0 0 76 21" fill="none" xmlns="http://www.w3.org/2000/svg" width="76"  height="21" ><path d="M0 0.492035H2.86229V14.8016H9.25075V16.3909H0V0.492035Z" fill="currentColor"></path><path d="M12.1353 4.96664L15.0424 12.2125L18.1114 4.96664H19.9215L13.0277 20.2526H11.2187L13.5549 15.4151L9.25 4.96664H12.1353Z" fill="currentColor"></path><path d="M21.4766 5.10352L24.0643 4.80843V6.89899C25.0257 5.58195 26.2857 4.74008 27.935 4.74008C29.8348 4.74008 31.1867 5.98986 31.1867 8.57947V16.3928H28.5989V9.46581C28.5989 7.62586 27.8213 6.7406 26.3316 6.7406C25.577 6.7406 24.7982 6.96734 24.0654 7.35355V16.3928H21.4777V5.10352H21.4766Z" fill="currentColor"></path><path d="M40.5992 16.3915L37.8507 12.2125L34.8746 16.3915H32.8359L36.9352 10.8499L33.0656 4.96664H36.1106L38.5616 8.66933L41.2172 4.96664H43.21L39.4771 10.0319L43.6901 16.3915H40.5992Z" fill="currentColor"></path><path d="M46.8928 9.19044H51.5411C51.587 6.85144 50.5797 6.079 49.4565 6.079C48.3332 6.079 47.0524 7.00983 46.8928 9.19044ZM46.9617 10.9176C47.374 13.3477 49.0912 14.4152 50.8324 14.4152C52.1831 14.4152 53.419 13.9162 54.1978 13.121C54.0381 15.1876 52.1602 16.6186 49.778 16.6186C46.779 16.6186 44.375 14.2785 44.375 10.8503C44.375 7.42208 46.4815 4.74026 49.8469 4.74026C52.3439 4.74026 54.2207 6.21678 54.2896 8.39739C54.2896 8.55578 54.2896 8.67078 54.2667 8.85195L46.9628 10.9197L46.9617 10.9176Z" fill="currentColor"></path><path d="M58.0521 4.96664L60.9604 12.2125L64.0294 4.96664H65.8373L58.9457 20.2526H57.1367L59.4718 15.4151L55.168 4.96664H58.0521Z" fill="currentColor"></path><path d="M68.5998 9.19025H73.2481C73.2941 6.85126 72.2868 6.07882 71.1635 6.07882C70.0402 6.07882 68.7595 7.00965 68.5998 9.19025ZM68.6687 10.9174C69.081 13.3475 70.7982 14.415 72.5394 14.415C73.8902 14.415 75.1261 13.916 75.9048 13.1208C75.7451 15.1875 73.8672 16.6184 71.4851 16.6184C68.486 16.6184 66.082 14.2783 66.082 10.8501C66.082 7.4219 68.1886 4.74008 71.554 4.74008C74.0509 4.74008 75.9278 6.2166 75.9967 8.39721C75.9967 8.5556 75.9967 8.6706 75.9737 8.85177L68.6698 10.9195L68.6687 10.9174Z" fill="currentColor"></path></svg>