<svg xmlns:xlink="http://www.w3.org/1999/xlink" xmlns="http://www.w3.org/2000/svg" fill="none" viewBox="0 0 1920 1920" height="1920" width="1920">
<rect fill="white" height="1920" width="1920"/>
<path fill="black" d="M1077.28 735.955C1157.74 778.269 1212.7 862.631 1212.7 959.874C1212.7 1057.12 1157.74 1141.74 1077.28 1183.8V1154.88C1108.05 1136.48 1134.08 1110.72 1153.02 1080.24L1077.28 1049.5V1002.71L1160.37 1067.63C1177.73 1035.56 1187.46 999.029 1187.46 959.867C1187.46 877.34 1143.27 804.809 1077.28 764.856V735.955ZM960.266 707.307C1002.34 707.307 1042.04 717.561 1077.28 735.955V764.869C1044.93 745.411 1007.07 733.853 967.102 732.537L996.023 939.378L1077.28 1002.71V1049.5L959.734 1001.93L842.98 1049.76V1003.24L924.762 939.372L953.423 732.53C912.925 733.847 875.326 745.411 842.98 764.856V735.955C877.959 717.561 917.926 707.307 960.266 707.307ZM1077.28 1183.8C1042.04 1202.19 1002.33 1212.7 960.266 1212.7C917.932 1212.7 877.966 1202.19 842.987 1184.06V1154.88C877.174 1175.64 917.4 1187.47 960.266 1187.47C1002.87 1187.47 1042.84 1175.64 1077.28 1154.88V1183.8ZM842.987 1184.06C762.256 1141.74 707.3 1057.12 707.3 959.874C707.3 862.631 762.249 778.269 842.98 735.955L842.987 764.869C776.719 804.816 732.543 877.088 732.543 959.874C732.543 999.029 742.538 1036.1 759.895 1068.16L842.98 1003.24V1049.76L767.516 1080.76C786.448 1111 812.217 1136.48 842.987 1154.88V1184.06Z" clip-rule="evenodd" fill-rule="evenodd"/>
</svg>