<svg xmlns:xlink="http://www.w3.org/1999/xlink" xmlns="http://www.w3.org/2000/svg" fill="none" viewBox="0 0 1920 1920" height="1920" width="1920">
<rect fill="white" height="1920" width="1920"/>
<g clip-path="url(#clip0_603_60376)">
<path fill="black" d="M870.577 891.9V1028.1H846.962V921.221H846.647L804.454 1028.1H788.711L745.574 921.221H745.259V1028.1H723.533V891.9H757.539L796.583 992.789H797.212L838.46 891.9H870.577ZM890.099 902.304C890.099 898.521 891.358 895.368 894.192 892.846C897.026 890.324 900.175 889.062 903.953 889.062C908.046 889.062 911.51 890.324 914.029 892.846C916.548 895.368 918.122 898.521 918.122 902.304C918.122 906.087 916.863 909.24 914.029 911.762C911.195 914.285 908.046 915.546 903.953 915.546C899.86 915.546 896.711 914.285 894.192 911.762C891.673 908.925 890.099 905.772 890.099 902.304ZM915.603 930.364V1028.1H892.618V930.364H915.603ZM985.19 1011.39C988.653 1011.39 992.432 1010.76 996.525 1008.87C1000.62 1007.29 1004.4 1005.08 1007.86 1002.56V1024C1004.08 1026.21 999.988 1027.78 995.265 1028.73C990.542 1029.68 985.504 1030.31 979.837 1030.31C965.353 1030.31 953.703 1025.89 944.886 1016.75C935.755 1007.61 931.347 995.942 931.347 982.069C931.347 966.305 936.07 953.379 945.201 943.29C954.332 933.201 967.242 928.157 984.245 928.157C988.653 928.157 993.061 928.787 997.155 929.733C1001.56 930.679 1005.03 932.255 1007.55 933.517V955.586C1004.08 953.064 1000.3 950.857 996.84 949.596C993.061 948.335 989.283 947.389 985.504 947.389C976.373 947.389 969.131 950.226 963.464 956.217C957.796 962.207 955.277 970.089 955.277 980.178C955.277 989.951 958.111 997.833 963.464 1003.19C968.816 1008.55 976.058 1011.39 985.19 1011.39ZM1073.04 928.787C1074.93 928.787 1076.5 928.787 1078.08 929.103C1079.65 929.418 1080.91 929.733 1081.85 930.049V953.379C1080.6 952.433 1079.02 951.487 1076.5 950.857C1073.98 950.226 1071.46 949.596 1068 949.596C1062.33 949.596 1057.61 952.118 1053.83 956.847C1050.05 961.576 1047.85 968.828 1047.85 978.917V1028.1H1024.86V930.364H1047.85V945.812H1048.16C1050.37 940.453 1053.52 936.354 1057.61 933.201C1062.02 930.364 1067.06 928.787 1073.04 928.787ZM1083.11 980.808C1083.11 964.729 1087.84 951.803 1096.65 942.344C1105.78 932.886 1118.38 928.157 1134.44 928.157C1149.55 928.157 1161.52 932.571 1170.02 941.714C1178.52 950.857 1182.93 963.153 1182.93 978.601C1182.93 994.365 1178.2 1006.98 1169.39 1016.43C1160.26 1025.89 1147.98 1030.62 1132.23 1030.62C1117.12 1030.62 1105.15 1026.21 1096.34 1017.38C1087.52 1008.24 1083.11 995.942 1083.11 980.808ZM1107.04 979.862C1107.04 989.951 1109.25 997.833 1113.97 1003.19C1118.69 1008.55 1125.31 1011.39 1133.81 1011.39C1141.99 1011.39 1148.61 1008.87 1153.02 1003.19C1157.42 997.833 1159.63 989.951 1159.63 979.232C1159.63 968.828 1157.42 960.946 1153.02 955.271C1148.61 949.911 1141.99 947.074 1134.12 947.074C1125.62 947.074 1119.32 949.911 1114.6 955.586C1109.25 961.576 1107.04 969.458 1107.04 979.862ZM1217.25 956.217C1217.25 959.369 1218.19 962.207 1220.4 964.099C1222.6 965.99 1227.01 968.197 1234.25 971.035C1243.38 974.818 1249.99 978.917 1253.46 983.33C1257.24 988.06 1259.13 993.419 1259.13 1000.04C1259.13 1009.18 1255.66 1016.43 1248.42 1022.11C1241.49 1027.78 1231.73 1030.31 1219.77 1030.31C1215.67 1030.31 1211.27 1029.68 1206.23 1028.73C1201.19 1027.78 1197.1 1026.52 1193.63 1024.95V1002.25C1197.73 1005.08 1202.45 1007.61 1207.17 1009.18C1211.9 1010.76 1216.3 1011.71 1220.4 1011.71C1225.44 1011.71 1229.53 1011.07 1231.73 1009.5C1234.25 1007.92 1235.51 1005.72 1235.51 1002.25C1235.51 999.094 1234.25 996.572 1231.73 994.05C1229.21 991.843 1224.18 989.321 1217.25 986.483C1208.75 983.015 1202.76 978.917 1199.3 974.503C1195.84 970.089 1193.95 964.414 1193.95 957.478C1193.95 948.65 1197.41 941.399 1204.34 935.724C1211.27 930.049 1220.4 927.211 1231.42 927.211C1234.88 927.211 1238.66 927.526 1242.75 928.472C1246.85 929.418 1250.62 930.364 1253.46 931.31V953.694C1250.31 951.803 1246.85 949.911 1242.75 948.335C1238.66 946.758 1234.57 946.128 1230.79 946.128C1226.38 946.128 1222.92 947.074 1220.71 948.65C1218.51 950.857 1217.25 953.064 1217.25 956.217ZM1268.89 980.808C1268.89 964.729 1273.61 951.803 1282.43 942.344C1291.56 932.886 1304.15 928.157 1320.21 928.157C1335.32 928.157 1347.29 932.571 1355.79 941.714C1364.29 950.857 1368.7 963.153 1368.7 978.601C1368.7 994.365 1363.98 1006.98 1355.16 1016.43C1346.03 1025.89 1333.75 1030.62 1318.01 1030.62C1302.89 1030.62 1290.93 1026.21 1282.11 1017.38C1273.61 1008.24 1268.89 995.942 1268.89 980.808ZM1292.82 979.862C1292.82 989.951 1295.02 997.833 1299.74 1003.19C1304.47 1008.55 1311.08 1011.39 1319.58 1011.39C1327.77 1011.39 1334.38 1008.87 1338.79 1003.19C1343.2 997.833 1345.4 989.951 1345.4 979.232C1345.4 968.828 1343.2 960.946 1338.79 955.271C1334.38 949.911 1327.77 947.074 1319.9 947.074C1311.39 947.074 1305.1 949.911 1300.37 955.586C1295.34 961.576 1292.82 969.458 1292.82 979.862ZM1445.21 949.28H1410.89V1028.1H1387.59V949.28H1371.22V930.364H1387.59V916.807C1387.59 906.718 1391.06 898.205 1397.67 891.585C1404.28 884.964 1412.78 881.811 1423.17 881.811C1426.01 881.811 1428.53 882.126 1430.73 882.126C1432.93 882.126 1434.82 882.757 1436.4 883.387V903.25C1435.77 902.935 1434.19 902.304 1432.3 901.674C1430.42 901.043 1428.21 900.728 1425.69 900.728C1420.97 900.728 1417.19 902.304 1414.67 905.142C1412.15 907.979 1410.89 912.708 1410.89 918.383V930.049H1445.21V907.979L1468.2 901.043V930.049H1491.5V948.965H1468.2V994.68C1468.2 1000.67 1469.46 1004.77 1471.35 1007.29C1473.55 1009.81 1477.02 1011.07 1481.74 1011.07C1483 1011.07 1484.57 1010.76 1486.46 1010.13C1488.35 1009.5 1489.93 1008.87 1491.19 1007.92V1026.84C1489.61 1027.78 1487.41 1028.42 1483.94 1029.05C1480.48 1029.68 1477.33 1029.99 1473.87 1029.99C1464.11 1029.99 1456.86 1027.47 1452.14 1022.42C1447.42 1017.38 1444.9 1009.5 1444.9 999.094L1445.21 949.28Z"/>
<path fill="black" d="M536.185 846.5H428.5V954.325H536.185V846.5Z"/>
<path fill="black" d="M655.206 846.5H547.521V954.325H655.206V846.5Z"/>
<path fill="black" d="M536.185 965.675H428.5V1073.5H536.185V965.675Z"/>
<path fill="black" d="M655.206 965.675H547.521V1073.5H655.206V965.675Z"/>
</g>
<defs>
<clipPath id="clip0_603_60376">
<rect transform="translate(428.5 846.5)" fill="white" height="227" width="1063"/>
</clipPath>
</defs>
</svg>