<svg xmlns:xlink="http://www.w3.org/1999/xlink" xmlns="http://www.w3.org/2000/svg" fill="none" viewBox="0 0 1920 1920" height="1920" width="1920">
<rect fill="white" height="1920" width="1920"/>
<g clip-path="url(#clip0_603_60377)">
<path fill="black" d="M588.228 801.026C500.28 801.026 428.981 872.218 428.981 960.036C428.981 1047.86 500.28 1119.04 588.228 1119.04C676.185 1119.04 747.476 1047.86 747.476 960.036C747.476 872.224 676.185 801.034 588.226 801.034L588.228 801.026ZM661.257 1030.36C658.405 1035.04 652.281 1036.52 647.603 1033.65C610.214 1010.84 563.145 1005.68 507.713 1018.33C502.372 1019.54 497.047 1016.2 495.83 1010.86C494.608 1005.53 497.941 1000.21 503.296 998.996C563.957 985.158 615.991 991.116 657.967 1016.73C662.645 1019.6 664.128 1025.69 661.257 1030.36ZM680.749 987.068C677.154 992.901 669.51 994.743 663.672 991.154C620.867 964.882 555.617 957.274 504.987 972.62C498.42 974.6 491.485 970.905 489.492 964.36C487.515 957.803 491.217 950.892 497.772 948.898C555.605 931.376 627.503 939.864 676.66 970.026C682.498 973.615 684.343 981.246 680.749 987.068ZM682.422 941.983C631.097 911.543 546.419 908.744 497.416 923.595C489.547 925.978 481.226 921.542 478.841 913.685C476.457 905.824 480.895 897.52 488.77 895.131C545.021 878.08 638.533 881.374 697.623 916.402C704.716 920.596 707.036 929.724 702.834 936.782C698.65 943.849 689.485 946.179 682.43 941.983H682.422ZM862.238 947.816C834.741 941.269 829.854 936.674 829.854 927.018C829.854 917.896 838.449 911.757 851.247 911.757C863.645 911.757 875.93 916.419 888.823 926.015C889.203 926.306 889.697 926.422 890.173 926.346C890.667 926.274 891.086 926.01 891.371 925.613L904.796 906.716C905.348 905.937 905.196 904.865 904.454 904.27C889.108 891.979 871.841 886.004 851.646 886.004C821.962 886.004 801.216 903.794 801.216 929.247C801.216 956.543 819.11 966.208 850.03 973.668C876.329 979.72 880.779 984.789 880.779 993.85C880.779 1003.9 871.803 1010.14 857.351 1010.14C841.301 1010.14 828.199 1004.73 813.557 992.085C813.196 991.762 812.701 991.629 812.245 991.648C811.75 991.686 811.313 991.914 811.009 992.274L795.948 1010.16C795.321 1010.92 795.397 1012.02 796.119 1012.67C813.158 1027.86 834.113 1035.87 856.743 1035.87C888.728 1035.87 909.398 1018.42 909.398 991.401C909.455 968.602 895.783 955.975 862.295 947.84L862.238 947.816ZM981.773 920.739C967.911 920.739 956.539 926.192 947.145 937.367V924.789C947.145 923.796 946.346 922.987 945.358 922.987H920.732C919.743 922.987 918.944 923.796 918.944 924.789V1064.54C918.944 1065.53 919.743 1066.35 920.732 1066.35H945.358C946.346 1066.35 947.145 1065.53 947.145 1064.54V1020.43C956.539 1030.93 967.911 1036.08 981.773 1036.08C1007.54 1036.08 1033.63 1016.28 1033.63 978.415C1033.67 940.547 1007.58 920.737 981.792 920.737L981.773 920.739ZM1004.99 978.415C1004.99 997.686 993.107 1011.15 976.069 1011.15C959.239 1011.15 946.537 997.078 946.537 978.415C946.537 959.75 959.239 945.683 976.069 945.683C992.822 945.681 1004.99 959.446 1004.99 978.415ZM1100.47 920.739C1067.29 920.739 1041.29 946.251 1041.29 978.827C1041.29 1011.05 1067.12 1036.29 1100.07 1036.29C1133.37 1036.29 1159.44 1010.86 1159.44 978.415C1159.44 946.076 1133.54 920.743 1100.47 920.743V920.739ZM1100.47 1011.34C1082.82 1011.34 1069.51 997.173 1069.51 978.406C1069.51 959.552 1082.37 945.871 1100.07 945.871C1117.83 945.871 1131.22 960.031 1131.22 978.818C1131.22 997.667 1118.29 1011.34 1100.47 1011.34ZM1230.29 922.987H1203.2V895.329C1203.2 894.338 1202.4 893.529 1201.41 893.529H1176.78C1175.79 893.529 1174.98 894.338 1174.98 895.329V922.987H1163.15C1162.16 922.987 1161.36 923.796 1161.36 924.789V945.917C1161.36 946.908 1162.16 947.719 1163.15 947.719H1174.98V1002.4C1174.98 1024.48 1185.99 1035.68 1207.72 1035.68C1216.55 1035.68 1223.87 1033.86 1230.77 1029.95C1231.34 1029.64 1231.68 1029.04 1231.68 1028.39V1008.26C1231.68 1007.65 1231.36 1007.07 1230.83 1006.74C1230.29 1006.4 1229.63 1006.38 1229.08 1006.67C1224.34 1009.04 1219.76 1010.14 1214.63 1010.14C1206.73 1010.14 1203.2 1006.55 1203.2 998.541V947.728H1230.29C1231.28 947.728 1232.08 946.919 1232.08 945.926V924.8C1232.12 923.807 1231.32 922.998 1230.31 922.998L1230.29 922.987ZM1324.69 923.095V919.698C1324.69 909.705 1328.53 905.248 1337.13 905.248C1342.26 905.248 1346.39 906.266 1351.01 907.804C1351.58 907.983 1352.17 907.893 1352.63 907.553C1353.1 907.213 1353.37 906.669 1353.37 906.091V885.375C1353.37 884.583 1352.87 883.883 1352.09 883.649C1347.22 882.2 1340.99 880.714 1331.63 880.714C1308.91 880.714 1296.87 893.5 1296.87 917.678V922.881H1285.04C1284.05 922.881 1283.24 923.689 1283.24 924.681V945.917C1283.24 946.908 1284.05 947.719 1285.04 947.719H1296.87V1032.04C1296.87 1033.04 1297.69 1033.84 1298.68 1033.84H1323.28C1324.29 1033.84 1325.09 1033.04 1325.09 1032.04V947.725H1348.08L1383.3 1032.04C1379.31 1040.88 1375.37 1042.65 1370.01 1042.65C1365.67 1042.65 1361.09 1041.36 1356.43 1038.8C1355.99 1038.57 1355.46 1038.53 1355 1038.66C1354.53 1038.83 1354.13 1039.18 1353.94 1039.63L1345.59 1057.92C1345.19 1058.79 1345.53 1059.8 1346.37 1060.25C1355.08 1064.96 1362.93 1066.97 1372.65 1066.97C1390.83 1066.97 1400.89 1058.5 1409.73 1035.76L1452.44 925.556C1452.67 925.002 1452.59 924.375 1452.25 923.883C1451.93 923.395 1451.38 923.101 1450.79 923.101H1425.15C1424.37 923.101 1423.69 923.589 1423.44 924.308L1397.18 999.186L1368.43 924.259C1368.16 923.562 1367.5 923.101 1366.75 923.101H1324.69V923.095ZM1269.96 922.987H1245.34C1244.35 922.987 1243.53 923.796 1243.53 924.789V1032.04C1243.53 1033.04 1244.35 1033.84 1245.34 1033.84H1269.96C1270.95 1033.84 1271.77 1033.04 1271.77 1032.04V924.796C1271.77 923.803 1270.97 922.994 1269.96 922.994V922.987ZM1257.79 874.151C1248.04 874.151 1240.13 882.035 1240.13 891.774C1240.13 901.519 1248.04 909.412 1257.79 909.412C1267.55 909.412 1275.44 901.519 1275.44 891.774C1275.44 882.037 1267.53 874.151 1257.79 874.151ZM1473.47 957.471C1463.74 957.471 1456.15 949.658 1456.15 940.169C1456.15 930.681 1463.83 922.778 1473.57 922.778C1483.3 922.778 1490.89 930.59 1490.89 940.07C1490.89 949.559 1483.21 957.471 1473.47 957.471ZM1473.57 924.498C1464.69 924.498 1457.97 931.543 1457.97 940.169C1457.97 948.792 1464.65 955.741 1473.47 955.741C1482.35 955.741 1489.07 948.702 1489.07 940.07C1489.07 931.448 1482.39 924.498 1473.57 924.498ZM1477.41 941.85L1482.32 948.701H1478.17L1473.76 942.416H1469.97V948.701H1466.51V930.54H1474.61C1478.85 930.54 1481.63 932.699 1481.63 936.334C1481.65 939.311 1479.92 941.13 1477.43 941.85H1477.41ZM1474.48 933.656H1469.97V939.4H1474.48C1476.72 939.4 1478.07 938.301 1478.07 936.525C1478.07 934.657 1476.72 933.656 1474.48 933.656Z"/>
</g>
<defs>
<clipPath id="clip0_603_60377">
<rect transform="translate(428.5 800.5)" fill="white" height="319" width="1063"/>
</clipPath>
</defs>
</svg>