<svg xmlns:xlink="http://www.w3.org/1999/xlink" xmlns="http://www.w3.org/2000/svg" fill="none" viewBox="0 0 1920 1920" height="1920" width="1920">
<rect fill="white" height="1920" width="1920"/>
<g clip-path="url(#clip0_603_60341)">
<path fill="#010202" d="M624.168 1016.55C627.375 1025.07 631.816 1032.37 637.491 1038.42C643.165 1044.48 649.888 1049.11 657.659 1052.33C665.431 1055.54 673.88 1057.15 683.009 1057.15C691.891 1057.15 700.217 1055.48 707.989 1052.14C715.761 1048.8 722.545 1044.11 728.342 1038.05C734.14 1031.99 738.643 1024.76 741.85 1016.36C745.058 1007.96 746.661 998.563 746.661 988.18V828H785.518V1087.55H747.031V1063.45C738.396 1072.59 728.219 1079.64 716.5 1084.58C704.781 1089.53 692.138 1092 678.568 1092C664.752 1092 651.861 1089.59 639.896 1084.77C627.93 1079.95 617.568 1073.09 608.81 1064.19C600.053 1055.29 593.144 1044.6 588.087 1032.12C583.029 1019.64 580.5 1005.73 580.5 990.404V828H619.357V988.18C619.357 998.563 620.96 1008.02 624.168 1016.55Z"/>
<path fill="#010202" d="M852.497 828V922.55C861.132 913.899 871.124 907.04 882.473 901.972C893.821 896.904 906.157 894.371 919.479 894.371C933.296 894.371 946.247 896.966 958.336 902.157C970.425 907.348 980.909 914.393 989.792 923.292C998.674 932.191 1005.71 942.696 1010.89 954.809C1016.07 966.922 1018.66 979.776 1018.66 993.371C1018.66 1006.97 1016.07 1019.76 1010.89 1031.75C1005.71 1043.74 998.674 1054.18 989.792 1063.08C980.909 1071.98 970.425 1079.02 958.336 1084.21C946.247 1089.4 933.295 1092 919.479 1092C906.156 1092 893.76 1089.47 882.288 1084.4C870.815 1079.33 860.762 1072.47 852.127 1063.82V1087.55H815.12V828H852.497ZM856.752 1018.96C860.083 1026.87 864.709 1033.79 870.63 1039.72C876.551 1045.65 883.459 1050.35 891.354 1053.81C899.249 1057.27 907.76 1059 916.889 1059C925.771 1059 934.159 1057.27 942.053 1053.81C949.948 1050.35 956.793 1045.65 962.592 1039.72C968.39 1033.79 973.016 1026.87 976.47 1018.96C979.924 1011.05 981.65 1002.52 981.65 993.371C981.65 984.225 979.924 975.635 976.47 967.601C973.016 959.567 968.39 952.584 962.592 946.652C956.794 940.72 949.949 936.084 942.053 932.748C934.158 929.411 925.77 927.741 916.889 927.741C908.008 927.741 899.619 929.41 891.725 932.748C883.83 936.085 876.922 940.72 871 946.652C865.08 952.584 860.392 959.567 856.938 967.601C853.484 975.635 851.757 984.225 851.757 993.371C851.757 1002.52 853.422 1011.05 856.752 1018.96Z"/>
<path fill="#010202" d="M1039.75 955.18C1044.68 943.315 1051.47 932.872 1060.1 923.849C1068.73 914.827 1078.97 907.72 1090.82 902.529C1102.66 897.338 1115.49 894.743 1129.3 894.743C1142.87 894.743 1155.46 897.215 1167.05 902.158C1178.65 907.102 1188.64 913.962 1197.03 922.738C1205.41 931.512 1211.95 941.895 1216.64 953.883C1221.33 965.872 1223.67 978.912 1223.67 993.002V1005.24H1070.09C1071.33 1012.9 1073.79 1020.01 1077.49 1026.56C1081.2 1033.11 1085.82 1038.79 1091.37 1043.61C1096.92 1048.43 1103.21 1052.2 1110.25 1054.92C1117.28 1057.64 1124.74 1059 1132.63 1059C1155.09 1059 1173.22 1049.73 1187.04 1031.19L1214.05 1051.21C1204.67 1063.82 1193.08 1073.71 1179.26 1080.88C1165.45 1088.05 1149.91 1091.63 1132.64 1091.63C1118.57 1091.63 1105.44 1089.16 1093.22 1084.21C1081.01 1079.27 1070.4 1072.35 1061.4 1063.45C1052.39 1054.55 1045.3 1044.11 1040.12 1032.12C1034.94 1020.13 1032.35 1007.09 1032.35 993C1032.35 979.653 1034.81 967.046 1039.75 955.18ZM1091.74 940.534C1081.26 949.309 1074.29 960.989 1070.83 975.573H1185.92C1182.72 960.989 1175.87 949.309 1165.39 940.534C1154.9 931.759 1142.63 927.371 1128.56 927.371C1114.5 927.371 1102.23 931.759 1091.74 940.534Z"/>
<path fill="#010202" d="M1293.61 944.798C1285.72 953.449 1281.77 965.191 1281.77 980.023V1087.55H1244.39V898.45H1281.4V921.81C1286.09 914.147 1292.19 908.09 1299.72 903.641C1307.24 899.191 1316.18 896.966 1326.55 896.966H1339.5V931.82H1323.96C1311.62 931.821 1301.51 936.146 1293.61 944.798Z"/>
</g>
<defs>
<clipPath id="clip0_603_60341">
<rect transform="translate(580.5 828)" fill="white" height="264" width="759"/>
</clipPath>
</defs>
</svg>