<svg xmlns:xlink="http://www.w3.org/1999/xlink" xmlns="http://www.w3.org/2000/svg" fill="none" viewBox="0 0 1920 1920" height="1920" width="1920">
<rect fill="white" height="1920" width="1920"/>
<mask height="590" width="532" y="665" x="694" maskUnits="userSpaceOnUse" style="mask-type:luminance" id="mask0_603_60243">
<path fill="white" d="M1225.8 665.951H694.205V1254.05H1225.8V665.951Z"/>
</mask>
<g mask="url(#mask0_603_60243)">
<path fill="black" d="M762.671 1183C761.801 1180.23 759.261 1174 758.569 1169.4C757.042 1159.21 762.37 1152.5 767.262 1150.96C772.753 1149.43 774.898 1152.18 777.023 1158.59C779.77 1168.36 780.077 1181.15 779.153 1199.46C777.952 1224.47 765.439 1254.67 734.334 1254.04C707.484 1253.46 695.603 1236.07 694.368 1209.53C693.785 1197.02 694.679 1184.52 699.858 1166.84C702.606 1157.37 705.057 1154 713.582 1152.18C720.284 1150.96 719.681 1157.97 718.164 1166.23C714.823 1184.52 713.271 1193.35 714.506 1214.1C715.702 1236.07 725.789 1244.61 736.77 1244.61C753.242 1244.93 760.556 1231.2 763.62 1211.36C766.037 1195.5 764.213 1187.88 762.671 1183ZM1113.87 1204.66C1120.28 1204.66 1122.12 1212.25 1120.59 1216.85C1119.06 1221.41 1113.58 1226.62 1105.04 1228.14C1103.2 1223.55 1102.29 1204.66 1113.87 1204.66ZM994.639 1215C994.639 1209.84 991.876 1205.56 988.55 1205.56C985.773 1205.56 979.393 1208.6 979.393 1218.37C979.393 1226.02 982.111 1229.65 983.356 1231.2C992.177 1228.44 994.639 1221.11 994.639 1215ZM899.762 1152.79C899.332 1147.9 895.497 1144.57 890.308 1144.57C884.521 1144.57 879.07 1150.64 879.648 1158.27C880.019 1163.3 882.984 1167.44 888.811 1167.44C895.497 1167.45 900.375 1159.82 899.762 1152.79ZM949.365 1170.71C948.836 1162.18 946.77 1158.33 942.189 1158.64C936.115 1159.01 933.308 1178.12 934.549 1198.21C935.34 1211.32 937.292 1213.34 939.11 1213.21C942.471 1213.01 950.531 1189.59 949.365 1170.71ZM1151.7 1202.82C1147.91 1218.5 1136.45 1241.57 1119.35 1241.57C1115.4 1241.57 1108.38 1240.03 1108.38 1236.07C1108.38 1231.79 1135.24 1231.2 1135.24 1210.75C1135.24 1203.14 1128.23 1192.45 1117.85 1192.45C1104.12 1192.45 1090.74 1207.41 1090.74 1228.14C1090.74 1246.74 1102.29 1252.84 1113.87 1252.84C1134.01 1252.84 1146.21 1236.36 1152.61 1222.64C1155.68 1231.8 1157.48 1252.84 1165.13 1252.84C1168.17 1252.84 1170.32 1251.31 1173.98 1243.09C1183.11 1222.64 1191.97 1199.15 1204.17 1199.15C1208.74 1199.15 1206 1207.41 1216.98 1207.41C1222.15 1207.41 1225.8 1203.14 1225.8 1198.23C1225.8 1191.21 1219.41 1185.74 1209.66 1185.74C1180.98 1185.74 1174.9 1228.75 1170.32 1228.75C1162.69 1228.75 1165.13 1194.28 1159.63 1194.28C1154.74 1194.28 1152.35 1200.09 1151.7 1202.82ZM907.699 1239.41C912.27 1239.41 920.133 1237.93 926.32 1228.02C922.782 1220.16 920.257 1204.28 919.906 1198.5C918.087 1168.93 929.478 1141.12 941.947 1140.35C951.09 1139.8 958.404 1148.45 959.244 1162.47C961.493 1199.31 949.222 1214.69 943.079 1227.96C944.117 1233.11 952.844 1241.86 961.078 1241.86C964.117 1241.86 967.794 1240.34 968.718 1239.1C968.105 1236.98 967.482 1234.24 967.482 1230.26C967.482 1208.91 981.211 1190.91 993.112 1190.91C1002.57 1190.91 1008.06 1203.41 1008.06 1211.66C1008.06 1221.41 999.813 1229.35 987.621 1236.98C989.766 1239.1 993.71 1240.64 997.08 1240.64C1014.48 1240.64 1023.58 1219.59 1030.32 1200.36C1031.54 1196.7 1033.69 1191.52 1037.95 1191.52C1045.27 1191.52 1048.33 1239.72 1060.5 1239.72C1065.7 1239.72 1069.96 1229.03 1069.96 1220.82C1069.96 1214.71 1067.83 1214.1 1067.83 1205.25C1067.83 1195.5 1073.02 1187.27 1080.05 1187.27C1084.32 1187.27 1085.86 1191.52 1085.86 1196.7C1085.86 1216.22 1071.81 1252.53 1051.1 1252.53C1035.51 1252.53 1036.73 1225.68 1031.24 1225.68C1025.12 1225.68 1016.58 1252.83 986.41 1252.83C981.508 1252.83 976.333 1250.39 972.073 1245.5C964.764 1250.39 958.646 1252.53 951.628 1252.53C940.356 1252.53 935.463 1240.93 930.902 1240.93C925.401 1240.93 919.318 1252.83 900.998 1252.83C886.359 1252.83 883.918 1233.33 878.744 1233.33C874.158 1233.33 867.145 1252.83 859.524 1252.83C846.695 1252.83 843.977 1218.98 832.67 1218.98C823.828 1218.98 795.881 1253.36 788.295 1252.57C785.246 1252.26 783.961 1249.98 784.283 1246.92C784.712 1242.7 788.345 1231.41 789.818 1226.06C792.284 1216.79 794.547 1206.62 795.812 1203.38C797.067 1200.11 800.453 1197.77 803.171 1198.03C804.54 1198.16 804.95 1200.71 805.375 1202.82C806.917 1210.36 809.067 1218.05 811.493 1218.05C815.778 1218.05 829.927 1190.9 838.16 1190.9C848.242 1190.9 849.448 1233.61 863.167 1233.61C867.753 1233.61 871.118 1228.13 874.158 1221.4C874.469 1210.1 877.518 1193.97 886.666 1193.97C893.076 1193.97 896.13 1208.29 891.539 1220.81C891.529 1235.75 901.279 1239.41 907.699 1239.41Z"/>
</g>
<path fill="black" d="M1120.15 761.105C1117.88 761.105 1114.64 761.105 1112.86 757.551C1111.39 754.636 1111.89 749.936 1109.13 747.836C1111.89 748.641 1114.8 748.641 1117.06 748.641C1124.36 748.641 1131.32 743.625 1136.67 743.625C1140.19 743.625 1141.33 745.893 1141.33 748.152C1141.34 755.283 1126.96 761.105 1120.15 761.105ZM1123.7 779.395C1140.52 779.395 1155.92 765.963 1155.92 754.151C1155.92 748.641 1153.32 744.114 1146.68 743.304C1147.82 744.762 1148.3 745.893 1148.3 748.483C1148.3 757.388 1134.73 767.263 1119.99 767.263C1114.64 767.263 1113.02 770.979 1113.02 772.921C1113.02 777.458 1117.4 779.395 1123.7 779.395ZM1122.41 786.195C1124.52 801.565 1147.82 822.287 1154.13 821.797C1158.35 821.442 1159.96 801.728 1159.96 786.195C1159.96 777.295 1160.45 770.331 1155.75 768.711C1148.29 783.769 1128.73 786.843 1122.41 786.195Z"/>
<path fill="black" d="M758.119 887.996C763.615 887.996 762.483 854.326 771.384 854.326C773.494 854.326 774.141 856.431 774.141 859.021C774.141 866.627 770.415 877.8 770.415 883.943C770.415 887.022 771.226 887.996 772.683 887.996C776.573 887.996 783.368 850.926 790 850.926C792.105 850.926 793.074 853.031 793.074 855.136C793.074 862.905 783.21 885.238 783.21 891.549C783.21 892.523 783.526 893.328 784.342 893.328C788.389 893.328 796.479 875.853 799.064 867.116C800.522 862.579 802.464 860.148 804.248 860.148C805.864 860.148 807.327 861.932 807.327 865.658C807.327 874.395 799.227 894.949 792.105 908.713C786.61 919.392 778.031 934.757 778.031 943.336C778.031 947.71 778.826 952.237 785.142 957.742C774.784 957.095 770.578 956.126 766.699 948.036C749.377 982.506 798.579 979.111 781.747 1009.69C778.668 1004.2 754.398 998.528 754.398 966.484C754.398 938.809 778.668 922.624 778.668 911.139C778.668 908.876 777.868 906.933 775.762 905.154C770.415 900.613 770.252 896.901 766.046 896.901C762.977 896.901 759.241 904.018 763.131 910.329C764.43 912.434 765.562 913.729 765.562 915.671C765.562 920.198 758.436 932.33 753.424 932.33C748.403 932.33 744.529 919.886 744.529 899.807C744.529 881.996 748.566 864.042 753.588 864.042C755.04 864.042 755.525 865.01 755.525 866.31C755.525 868.416 754.882 872.616 754.882 879.738C754.882 887.343 756.661 887.996 758.119 887.996Z"/>
<path fill="black" d="M799.38 935.41C806.185 935.41 811.844 930.384 811.844 919.234V902.718C811.844 896.407 812.333 889.291 816.544 884.265C816.054 886.375 816.054 888.639 816.054 890.744C816.054 904.665 823.818 914.218 823.818 927.646C823.818 932.657 822.36 935.415 818.486 935.415C814.76 935.415 815.086 932.014 814.27 932.014C813.628 932.014 812.654 934.115 812.654 936.383C812.654 939.783 815.081 945.121 821.876 945.121C827.708 945.121 832.393 939.783 832.393 933.794C832.393 919.239 821.066 903.044 821.066 887.512C821.066 880.712 822.845 876.185 824.303 872.617C824.303 904.829 851.652 928.293 851.652 941.721C851.652 944.799 849.388 947.231 845.988 947.231C842.267 947.231 840.483 944.31 840.483 942.042C840.483 940.91 840.32 940.589 839.835 940.589C838.872 940.589 835.956 943.826 835.956 948.041C835.956 953.374 840.32 959.858 848.415 959.858C857.631 959.858 862.652 952.079 862.652 945.121C862.652 928.135 829.477 902.397 829.477 874.89C829.477 870.19 830.277 862.584 833.687 856.763C812.323 870.511 805.691 888.807 805.691 904.829C805.691 918.75 805.207 925.699 798.085 925.699C794.359 925.699 793.39 922.308 792.091 922.308C791.122 922.308 790.633 925.219 790.633 926.025C790.643 932.01 795.016 935.41 799.38 935.41Z"/>
<path fill="black" d="M1044.58 753.179C1046.63 751.8 1055.76 753.985 1067.55 748.153C1069.01 747.357 1070.46 747.031 1071.76 747.031C1077.43 747.031 1075.97 753.5 1081.16 753.5C1085.2 753.5 1090.39 750.1 1093.47 750.1C1098.29 750.1 1105.25 765.317 1105.25 772.438C1105.25 780.691 1092.82 785.712 1078.08 785.712C1056.57 785.712 1043.6 766.938 1043.6 754.795C1043.61 753.826 1044.1 753.5 1044.58 753.179ZM1079.86 773.733C1086.99 773.733 1092.33 770.496 1092.33 768.549C1092.33 767.911 1091.36 767.422 1089.25 767.422C1087.15 767.422 1082.94 767.264 1075 765.964C1068.19 764.832 1063.01 762.243 1061.07 762.243C1060.42 762.243 1060.09 762.564 1060.09 763.048C1060.09 767.264 1067.87 773.733 1079.86 773.733Z"/>
<path fill="black" d="M802.785 996.423C797.448 997.723 788.864 1006.12 788.864 1019.41C788.864 1035.26 805.859 1059.71 833.856 1059.71C857.479 1059.71 863.31 1043.36 863.31 1032.35C863.31 1007.91 848.267 990.755 828.686 990.755C818.002 990.755 808.449 998.524 808.449 1010.01C808.449 1020.7 816.544 1036.72 835.798 1036.72C844.862 1036.72 850.199 1030.24 850.199 1022.81C850.199 1015.52 843.567 1005.5 833.851 1005.5C830.94 1005.5 828.84 1007.42 828.84 1010.51C828.84 1014.38 834.172 1018.28 840.814 1018.28C842.425 1018.28 843.725 1017.95 844.377 1017.62C844.694 1018.12 844.862 1018.92 844.862 1019.57C844.862 1023.3 841.298 1025.57 835.798 1025.57C827.545 1025.57 819.613 1019.42 819.613 1009.69C819.613 1003.88 824.634 999.67 831.914 999.67C846.315 999.67 854.889 1012.45 854.889 1025.25C854.889 1036.73 848.588 1043.37 835.635 1043.37C809.739 1043.37 797.127 1020.06 802.785 996.423Z"/>
<path fill="black" d="M987.527 1091.25C995.291 1091.25 994.885 1090.6 997.317 1090.6C999.739 1090.6 999.907 1092.06 999.907 1093.03C999.907 1096.6 991.97 1100.97 977.89 1100.97C969.637 1100.97 964.616 1096.59 963.163 1091.74C955.073 1096.92 942.777 1101.61 930.635 1101.61C897.464 1101.61 889.048 1087.2 878.684 1082.52C870.752 1078.95 858.615 1085.92 841.619 1066.98C843.888 1067.47 846.967 1067.63 849.393 1067.63C864.273 1067.63 872.205 1060.36 872.205 1048.69C872.205 1047.23 872.042 1045.63 871.879 1044.18C876.416 1045.96 886.779 1053.72 889.211 1067.47C889.527 1069.09 896.159 1070.54 900.37 1070.54C906.201 1070.54 913.644 1068.11 914.776 1058.57C934.198 1056.96 947.314 1045.47 950.066 1030.89C957.015 1033.16 964.947 1039.47 966.889 1042.71C969.642 1041.75 972.874 1041.26 976.595 1041.26C981.774 1041.26 987.606 1042.23 994.559 1044.34C994.885 1042.23 995.207 1039.64 998.449 1039.64C1003.3 1039.64 1002.01 1044.98 1003.63 1048.04C1004.44 1049.66 1008.49 1050.63 1008.49 1053.87C1008.49 1056.96 1005.89 1058.09 1004.27 1058.09C1003.62 1058.09 1002.81 1057.93 1002.32 1057.77C999.091 1058.9 998.923 1082.2 985.333 1082.2C975.305 1082.2 966.079 1073.94 962.026 1063.59C960.894 1060.52 958.468 1058.57 956.2 1058.57C953.615 1058.57 952.157 1059.06 949.088 1062.46C940.351 1072 925.782 1080.25 907.817 1080.25C902.312 1080.25 897.943 1079.76 896.807 1079.76C896.154 1079.76 896.154 1079.92 896.154 1080.08C896.154 1081.22 901.655 1085.59 913.634 1085.59C942.12 1085.59 949.083 1069.56 953.61 1069.56C954.267 1069.56 956.195 1069.56 957.326 1072.16C963.973 1087.69 978.463 1091.25 987.527 1091.25ZM974.979 1058.9C974.979 1062.47 977.895 1065.38 981.458 1065.38C985.021 1065.38 987.932 1062.47 987.932 1058.9C987.932 1055.34 985.021 1052.42 981.458 1052.42C977.895 1052.42 974.979 1055.34 974.979 1058.9Z"/>
<path fill="black" d="M1103.15 978.133C1100.89 978.133 1098.46 979.917 1098.46 984.296C1098.46 989.134 1102.19 992.218 1104.29 993.182C1105.42 993.839 1107.21 994.486 1108.97 994.486C1113.67 994.486 1117.4 993.182 1117.4 989.292C1117.4 984.296 1110.1 978.133 1103.15 978.133ZM1085.69 988.161C1082.29 988.161 1063.5 1013.25 1051.38 1013.25C1048.47 1013.25 1046.04 1007.75 1046.04 1003.55C1046.04 1001.29 1047.49 999.666 1052.69 998.524C1080.52 992.213 1074.36 971.328 1098.13 971.328C1111.23 971.328 1125.82 980.243 1125.82 1000.3C1125.82 1021.67 1095.42 1048.2 1090.88 1048.2C1087.15 1048.2 1083.11 1042.86 1083.11 1039.31C1083.11 1038.17 1083.59 1036.72 1086.83 1035.42C1102.35 1029.26 1111.24 1015.03 1111.24 1007.74C1111.24 1006.11 1110.43 1004.51 1108.33 1004.51C1105.58 1004.51 1093.8 1031.37 1080.67 1031.37C1071.6 1031.37 1062.36 1023.14 1062.36 1019.24C1062.36 1012.76 1088.61 1000.79 1088.61 991.719C1088.61 988.314 1086.99 988.161 1085.69 988.161Z"/>
<path fill="black" d="M765.399 776.001C765.399 776.001 760.709 779.554 754.882 779.554C747.929 779.554 742.423 774.38 742.423 767.095C742.423 762.074 745.013 756.9 750.998 754.306C750.84 755.279 750.84 756.085 750.84 757.058C750.835 766.29 756.014 773.243 765.399 776.001ZM800.032 807.076C796.474 811.277 792.748 818.403 792.748 825.683C792.748 834.42 798.095 841.7 806.348 841.7C814.275 841.7 818.001 834.905 818.001 827.951C818.001 817.108 808.127 809.493 800.032 807.076ZM746.308 813.545C746.001 814.044 745.819 814.682 745.819 815.329C745.819 816.787 747.44 818.403 748.888 818.403C750.182 818.403 750.993 818.082 751.64 818.082C755.52 818.082 759.893 820.83 766.204 820.83C769.921 820.83 774.294 819.693 779.795 816.95C791.448 811.119 795.985 796.718 795.985 794.286C795.985 791.207 793.514 791.613 791.448 788.781C789.382 785.959 790.173 783.463 788.858 782.144C788.112 781.388 785.789 781.338 782.869 781.012C781.895 780.908 780.6 780.849 779.306 780.849C773.973 780.849 767.642 781.506 760.536 786.033C746.501 794.993 748.566 809.824 746.308 813.545ZM784.337 793.476C785.458 795.003 788.552 796.881 788.552 798.013C788.552 800.271 787.247 803.192 784.663 803.192C778.994 803.192 774.467 794.612 774.467 789.75C774.467 786.681 776.251 786.359 778.673 786.359C779.805 786.359 780.294 786.522 781.1 787.007C782.552 787.817 782.552 791.049 784.337 793.476ZM769.441 813.224C764.104 813.224 758.277 806.592 758.277 800.597C758.277 797.365 760.704 793.313 762.483 793.313C763.13 793.313 763.457 793.802 763.615 794.939C764.583 802.866 769.768 807.402 774.626 809.661C775.11 809.982 775.436 810.145 775.436 810.466C775.436 811.603 772.357 813.224 769.441 813.224ZM783.205 772.438C784.01 769.843 784.658 766.616 784.658 763.048C784.658 755.284 781.09 743.468 770.089 743.468C763.783 743.468 759.241 748.484 759.241 754.474C759.241 767.263 772.031 772.438 783.205 772.438ZM741.287 837.173C741.287 849.469 745.013 855.3 751.645 855.3C756.824 855.3 763.783 851.574 772.031 844.453C765.725 845.91 760.862 846.884 756.498 846.884C750.672 846.884 746.145 844.616 741.287 837.173ZM746.955 822.767C746.797 823.582 746.797 824.388 746.797 825.194C746.797 832.799 750.835 837.01 756.177 837.01C760.21 837.01 764.914 834.583 769.11 829.236C767.341 829.557 765.231 829.72 763.289 829.72C757.309 829.72 750.835 828.109 746.955 822.767ZM786.605 820.504C782.874 821.472 775.11 826.004 775.11 834.094C775.11 839.916 779.637 843.647 785.305 843.647C788.221 843.647 790.321 842.995 791.616 842.026C787.089 837.657 785.468 832.799 785.468 827.951C785.468 824.546 785.953 822.446 786.605 820.504ZM792.427 776.159C792.427 779.717 795.337 782.638 798.896 782.638C802.459 782.638 805.375 779.722 805.375 776.159C805.375 772.601 802.459 769.68 798.896 769.68C795.337 769.68 792.427 772.601 792.427 776.159ZM800.838 790.723C800.838 794.286 803.759 797.202 807.327 797.202C810.88 797.202 813.796 794.286 813.796 790.723C813.796 787.17 810.88 784.254 807.327 784.254C803.754 784.254 800.838 787.17 800.838 790.723Z"/>
<path fill="black" d="M1053.33 870.186C1053.33 866.954 1056.25 864.201 1059.44 864.201C1063.01 864.201 1065.76 866.954 1065.76 870.186C1065.76 873.907 1063.01 876.502 1059.44 876.502C1056.25 876.502 1053.33 873.907 1053.33 870.186ZM996.506 820.341C996.506 823.899 999.427 826.815 1002.98 826.815C1006.55 826.815 1009.46 823.899 1009.46 820.341C1009.46 816.788 1006.54 813.872 1002.98 813.872C999.427 813.872 996.506 816.788 996.506 820.341ZM991.011 843.158C991.011 848.179 995.207 852.38 1000.23 852.38C1005.24 852.38 1009.46 848.179 1009.46 843.158C1009.46 838.147 1005.24 833.931 1000.23 833.931C995.207 833.931 991.011 838.147 991.011 843.158ZM1011.41 832.8C1011.41 838.31 1015.78 842.674 1021.25 842.674C1026.75 842.674 1031.14 838.31 1031.14 832.8C1031.14 827.299 1026.75 822.931 1021.25 822.931C1015.78 822.931 1011.41 827.299 1011.41 832.8ZM1012.22 811.762C1012.22 815.167 1014.97 817.924 1018.34 817.924C1021.74 817.924 1024.49 815.167 1024.49 811.762C1024.49 808.371 1021.74 805.619 1018.34 805.619C1014.97 805.619 1012.22 808.371 1012.22 811.762ZM1041.5 796.234C1041.5 799.624 1044.26 802.377 1047.66 802.377C1051.06 802.377 1053.82 799.624 1053.82 796.234C1053.82 792.829 1051.06 790.076 1047.66 790.076C1044.26 790.076 1041.5 792.829 1041.5 796.234ZM1029.36 816.14C1029.36 821.799 1034.05 826.489 1039.72 826.489C1045.39 826.489 1050.09 821.799 1050.09 816.14C1050.09 810.467 1045.4 805.782 1039.72 805.782C1034.05 805.782 1029.36 810.467 1029.36 816.14ZM1012.7 854.006C1012.7 857.569 1015.62 860.475 1019.15 860.475C1022.71 860.475 1025.63 857.569 1025.63 854.006C1025.63 850.443 1022.71 847.532 1019.15 847.532C1015.62 847.532 1012.7 850.443 1012.7 854.006ZM1033.89 841.053C1033.89 844.616 1036.8 847.532 1040.38 847.532C1043.93 847.532 1046.85 844.616 1046.85 841.053C1046.85 837.5 1043.93 834.584 1040.38 834.584C1036.8 834.584 1033.89 837.5 1033.89 841.053ZM1027.9 863.875C1027.9 870.023 1032.92 875.044 1039.08 875.044C1045.23 875.044 1050.26 870.023 1050.26 863.875C1050.26 857.727 1045.23 852.706 1039.08 852.706C1032.92 852.706 1027.9 857.727 1027.9 863.875ZM1051.22 850.112C1051.22 854.327 1054.62 857.727 1058.81 857.727C1063.02 857.727 1066.42 854.327 1066.42 850.112C1066.42 845.911 1063.02 842.511 1058.81 842.511C1054.62 842.511 1051.22 845.911 1051.22 850.112ZM1050.74 829.721C1050.74 833.452 1053.82 836.526 1057.5 836.526C1061.23 836.526 1064.31 833.452 1064.31 829.721C1064.31 826.004 1061.23 822.931 1057.5 822.931C1053.82 822.931 1050.74 826.004 1050.74 829.721Z"/>
<path fill="black" d="M1067.22 1042.07C1063.01 1045.31 1053.17 1052.58 1036.8 1052.58C1028.06 1052.58 1024.17 1049.83 1022.88 1049.83C1021.26 1049.83 1019.48 1051.44 1017.69 1053.55C1013.85 1058.09 1008.82 1066.51 1008.82 1075.72C1008.82 1082.19 1013.85 1088.66 1023.2 1088.66C1053.49 1088.66 1076.13 1069.73 1076.13 1054.36C1076.13 1045.63 1070.95 1042.07 1067.22 1042.07ZM1058.81 1040.29C1060.11 1039.17 1060.42 1037.38 1060.42 1035.59V1031.87C1060.42 1027.17 1053.33 1024.43 1043.61 1024.43C1031.78 1024.43 1025.47 1029.76 1025.47 1032.03V1039.47C1025.47 1042.56 1032.6 1045.63 1041.35 1045.63C1048.31 1045.63 1054.62 1043.85 1058.81 1040.29ZM1057.5 1056.31C1058.32 1056.31 1059.28 1056.79 1059.28 1059.71C1059.28 1063.26 1057.67 1067.95 1051.87 1071.67C1047.82 1074.43 1042.31 1076.7 1034.21 1076.84C1035.51 1072.97 1036.48 1068.92 1036.48 1065.05C1036.48 1063.75 1036.32 1062.78 1036.16 1061.33H1038.27C1051.06 1061.33 1056.57 1056.31 1057.5 1056.31Z"/>
<path fill="black" d="M995.696 858.542C997.475 872.291 1015.94 865.332 1015.94 881.997C1015.94 884.428 1015.3 887.996 1015.3 891.065C1015.3 894.628 1015.61 897.702 1018.34 897.702C1021.09 897.702 1021.74 895.765 1021.74 893.171C1021.74 890.576 1021.09 887.344 1021.09 885.565C1021.09 879.896 1025.14 878.606 1027.58 878.606C1033.73 878.606 1038.42 884.917 1047.66 884.917C1045.55 895.276 1024.17 892.523 1024.17 903.855C1024.17 909.524 1029.84 910.809 1033.57 910.809C1036.97 910.809 1038.1 910.324 1038.1 907.418C1038.1 905.792 1037.78 904.013 1037.78 902.882C1037.78 902.229 1038.27 901.582 1039.08 901.582C1042.65 901.582 1060.1 914.856 1060.1 918.908C1060.1 922.625 1041.67 926.346 1036.32 926.346C1034.7 926.346 1034.38 925.214 1034.38 924.567C1034.38 923.435 1037.13 920.035 1037.13 918.098C1037.13 916.64 1034.7 915.667 1028.22 915.667C1025.14 915.667 1022.87 915.993 1022.87 918.424C1022.87 922.783 1030 928.13 1030 932.168C1030 935.41 1028.06 937.352 1022.87 937.352C1018.5 937.352 1011.89 933.947 1011.89 928.288C1011.89 923.757 1016.56 919.235 1016.56 916.477C1016.56 915.667 1015.94 914.372 1014 914.372C1008 914.372 1006.38 930.226 985.17 932.01C988.57 928.936 991.476 925.536 991.476 918.587C991.476 915.187 990.675 912.43 990.675 908.713C990.675 903.855 992.933 901.424 996.17 901.424C1002.16 901.424 1005.07 909.835 1008.97 909.835C1011.08 909.835 1013.34 907.903 1013.34 904.987C1013.34 892.686 989.706 894.465 989.706 877.149C989.711 872.454 991.322 866.627 995.696 858.542ZM1072.89 905.96C1072.89 909.998 1074.19 914.693 1078.24 914.693C1081.64 914.693 1084.55 909.524 1084.55 903.855C1084.55 897.381 1083.42 892.36 1083.42 889.766C1083.42 888.639 1083.91 888.154 1084.55 888.154C1086.98 888.318 1089.25 894.95 1091.85 894.95C1094.76 894.95 1099.11 889.602 1100.88 889.602C1101.37 889.602 1101.53 890.255 1101.53 890.413C1101.53 892.844 1097.8 898.192 1097.8 900.292C1097.8 902.071 1107.2 902.392 1107.2 904.013C1107.2 906.445 1097.35 906.445 1092.66 908.55C1088.13 910.487 1085.36 912.914 1085.36 916.156C1085.36 919.393 1088.6 920.035 1093.14 920.035C1103.95 920.035 1111.56 914.214 1113.99 914.214C1114.47 914.214 1114.79 914.53 1114.79 915.019C1114.79 916.64 1109.29 921.977 1109.29 924.409C1109.29 927.157 1119.33 930.384 1119.17 932.01C1119.01 932.494 1118.36 932.652 1117.23 932.652C1115.44 932.652 1112.69 932.168 1110.58 932.168C1109.29 932.168 1108.16 932.326 1107.66 932.973C1106.54 934.273 1107.99 942.852 1105.73 942.852C1103.62 942.852 1098.12 923.757 1085.68 923.757C1083.9 923.757 1082.61 925.214 1082.61 927.641C1082.61 934.11 1088.92 941.553 1094.92 945.116C1097.63 946.9 1102.17 948.679 1102.17 949.658C1102.17 951.59 1091.84 949.816 1091.84 953.048C1091.84 955.964 1093.13 960.342 1093.13 962.922C1093.13 963.732 1092.97 964.696 1092 964.696C1090.06 964.696 1085.35 955.8 1083.09 955.8C1081.15 955.8 1076.94 961.138 1075.15 961.138C1074.67 961.138 1074.35 960.654 1074.35 960.174C1074.35 956.448 1080.34 948.037 1080.34 939.779C1080.34 935.894 1079.85 927.478 1075.15 927.478C1071.27 927.478 1066.89 933.626 1064.95 939.779C1063.82 943.337 1064.63 957.095 1062.03 957.095C1059.61 957.095 1060.25 947.874 1057.01 947.874C1054.62 947.874 1049.44 952.237 1047.65 952.237C1047.33 952.237 1047 952.074 1047 951.753C1047 949.816 1051.7 943.5 1051.7 942.205C1051.7 939.779 1041.01 939.457 1041.01 937.515C1041.01 936.378 1045.22 935.573 1049.1 934.921C1057.34 933.463 1069.48 927.478 1069.48 919.067C1069.48 909.682 1060.41 905.629 1054.45 901.745C1051.37 899.803 1047.97 898.192 1047.97 896.897C1047.97 895.597 1051.86 895.597 1053.48 895.597C1055.9 895.597 1058.31 895.434 1058.31 893.497C1058.31 892.034 1057.98 889.128 1057.98 886.86C1057.98 885.239 1058.14 883.944 1058.8 883.944C1061.22 883.944 1064.62 891.871 1066.25 891.871C1068.83 891.871 1072.4 885.397 1074.83 885.397C1075.63 885.397 1075.96 885.886 1075.96 887.339C1075.97 893.329 1072.89 900.124 1072.89 905.96Z"/>
<path fill="black" d="M1000.4 950.779C1007.85 951.753 1009.63 954.337 1009.63 956.448C1009.63 960.011 1006.39 961.138 1003.31 961.138C1001.05 961.138 998.453 960.653 995.701 960.653C992.133 960.653 988.579 961.464 985.669 964.864C987.769 965.185 990.848 966.648 990.848 969.89C990.848 979.275 964.794 971.496 964.794 995.623C964.794 1008.4 978.068 1022.33 998.127 1022.33C1008.5 1022.33 1015.14 1018.93 1015.14 1015.03C1015.14 1011.97 1009.64 1014.06 1009.64 1011.47C1009.64 1010.34 1011.58 1008.23 1011.58 1006.44C1011.58 1005.66 1010.93 1004.19 1009.64 1004.19C1006.71 1004.19 1001.21 1008.87 990.037 1008.87C981.295 1008.87 972.716 1003.87 972.716 997.066C972.716 995.613 973.368 994.797 974.337 994.797C975.31 994.797 976.6 995.45 977.737 995.45C978.71 995.45 978.868 994.797 978.868 993.023C978.868 991.239 978.868 986.218 981.937 986.218C985.021 986.218 990.848 997.55 1013.2 997.55C1020.61 997.55 1035.03 996.102 1040.38 991.239C1040.21 1009.05 1026.28 1032.51 997.159 1032.51C966.894 1032.51 950.709 1008.23 950.709 985.892C950.709 961.137 970.932 938.646 998.617 938.646C1005.73 938.646 1011.73 941.068 1011.73 944.147C1011.73 948.362 1001.2 945.768 1000.4 950.779ZM1050.09 959.368C1051.22 961.138 1051.71 962.922 1051.71 964.538C1051.71 969.074 1048.63 973.28 1048.63 977.98C1048.63 983.317 1052.68 987.681 1058.81 987.681C1065.44 987.681 1069.98 982.353 1069.98 976.033C1069.98 967.453 1062.21 960.174 1050.09 959.368ZM996.506 969.722C998.117 971.333 998.612 972.954 998.612 974.575C998.612 977.001 997.48 979.596 997.48 982.349C997.48 986.218 1000.4 989.623 1004.6 989.623C1009.14 989.623 1012.22 986.055 1012.22 981.864C1012.22 975.711 1005.89 969.722 996.506 969.722ZM1018.02 942.205C1035.02 945.442 1044.26 958.232 1044.26 970.211C1044.26 978.469 1039.08 986.06 1030 986.06C1021.74 986.06 1015.78 980.401 1015.78 971.338C1015.78 964.543 1021.09 957.421 1021.09 950.458C1021.09 947.71 1020.28 944.957 1018.02 942.205ZM1026.44 963.732C1026.44 965.995 1028.06 967.78 1030.33 967.78C1032.91 967.78 1034.54 965.511 1034.54 962.922C1034.54 959.526 1031.46 954.832 1028.55 954.832C1027.25 954.832 1027.73 956.774 1027.41 958.879C1027.25 960.49 1026.44 962.432 1026.44 963.732Z"/>
<path fill="black" d="M847.782 797.201C853.282 797.201 859.588 767.421 859.588 762.399C859.588 761.105 859.109 760.131 857.977 760.131C852.956 760.131 846.003 788.459 846.003 794.774C845.998 795.906 846.319 797.201 847.782 797.201ZM887.432 806.102C891.469 806.102 896.001 790.559 896.001 780.848C896.001 778.743 895.68 776.484 894.701 776.484C891.301 776.484 885.638 792.506 885.638 801.244C885.643 804.644 886.458 806.102 887.432 806.102ZM861.036 791.696C862.816 791.696 865.084 789.744 869.304 785.063C869.621 782.958 869.621 781.011 869.621 778.584C869.621 775.352 868.326 771.789 866.389 771.789C861.526 771.789 859.104 784.737 859.104 788.142C859.109 790.075 860.073 791.696 861.036 791.696ZM883.216 785.063C883.216 782.306 882.564 781.658 881.921 781.658C880.3 781.658 878.526 783.606 875.937 787.974C876.258 793.801 877.231 796.39 878.847 796.39C880.627 796.39 883.216 790.722 883.216 785.063ZM895.68 765.963C906.364 765.963 911.213 775.189 911.213 785.548C911.213 790.075 909.928 796.717 907.822 796.717C905.717 796.717 906.043 792.99 905.717 789.59C905.396 785.222 904.58 784.253 903.123 784.253C900.37 784.253 898.596 790.722 898.596 796.717C898.596 800.433 899.243 804.644 902.149 804.644C903.77 804.644 905.228 803.833 906.201 802.865C905.554 810.302 900.044 816.786 892.28 816.786C878.037 816.786 872.695 800.112 871.084 790.401C862.504 799.464 854.577 806.102 840.33 806.102C827.065 806.102 821.076 796.39 821.076 787.169C821.076 784.411 822.044 777.295 825.449 777.295C829.492 777.295 825.933 790.559 833.86 790.559C835.808 790.559 839.356 788.938 841.308 783.606C842.44 780.364 843.087 776.973 843.087 774.053C843.087 769.679 842.119 766.936 838.882 766.936C836.124 766.936 832.724 769.032 831.592 770.168C835.481 758.515 844.866 752.53 855.21 752.53C868.01 752.53 874.8 763.857 874.8 776.484C874.8 778.258 874.637 780.201 874.311 781.985C879.816 772.921 887.432 765.963 895.68 765.963Z"/>
<path fill="black" d="M865.415 809.493C858.457 809.493 858.136 817.924 858.136 834.905C852.952 823.741 844.382 811.762 834.345 811.762C827.55 811.762 824.965 816.298 824.965 824.22C824.965 825.841 825.123 828.273 825.449 829.721C826.26 826.978 828.849 825.841 832.081 825.841C839.05 825.841 847.461 831.179 852.961 838.468C846.655 837.336 840.503 836.2 835.328 836.2C832.086 836.2 829.176 836.526 826.749 837.658C822.054 839.758 815.743 846.721 815.743 857.243C815.743 858.864 815.906 860.638 816.232 862.58C821.896 849.953 836.944 844.29 846.655 844.29C848.603 844.29 850.051 844.453 851.187 844.616C846.166 849.143 845.039 857.075 844.708 862.417C844.555 865.007 843.577 865.175 841.792 865.175C841.792 870.507 846.008 878.444 846.008 882.486C846.008 883.944 845.198 885.239 844.392 885.565C844.392 892.687 851.504 897.866 851.504 902.393C851.504 903.525 851.187 904.498 850.693 904.987C851.187 907.903 859.015 912.801 860.028 915.257C861.274 918.242 862.672 918.746 863.483 918.746C866.236 918.746 870.594 915.504 870.594 912.588C870.594 911.62 869.784 910.488 869.146 909.999C866.068 907.74 864.447 902.882 863.152 899.65C862.015 899.65 860.552 899.171 860.038 897.263C859.154 893.912 859.109 887.671 857.814 883.944C855.709 883.46 854.736 882.65 854.736 878.281C854.736 876.176 856.035 867.917 856.035 865.002C855.067 865.002 853.772 864.354 853.772 862.412C853.772 857.238 858.956 853.19 860.404 846.558C869.631 853.348 871.889 860.307 871.889 866.465C871.889 869.692 871.405 872.77 870.758 875.691C877.558 872.286 887.753 867.27 887.753 857.075C887.753 851.08 885 844.448 866.71 841.858C872.374 839.753 879.5 838.626 885.485 838.626C895.848 838.626 901.833 841.858 903.123 849.138C905.228 845.906 906.849 842.18 906.849 838.784C906.849 830.848 900.207 825.678 891.796 825.678C881.921 825.678 873.184 830.848 863.794 837.168C868.015 828.431 870.911 823.252 876.1 823.252C876.905 823.252 877.716 823.415 878.526 823.578C876.584 816.461 869.305 809.493 865.415 809.493Z"/>
<path fill="black" d="M1138.09 926.183C1146.2 926.183 1152.67 936.699 1152.67 949.005C1152.67 962.111 1146.52 976.359 1135.54 986.06C1135.38 964.216 1108.64 971.175 1108.64 955.321C1108.64 948.525 1113.51 943.989 1119.34 943.989C1124.52 943.989 1128.57 945.447 1131.49 948.367C1128.57 945.61 1127.11 941.72 1127.11 938.004C1127.11 931.841 1131 926.183 1138.09 926.183Z"/>
<path fill="black" d="M993.591 772.438C997.806 776.485 1001.52 778.26 1006.05 778.26C1007.84 778.26 1009.95 777.78 1011.09 777.78C1012.55 777.78 1013.51 778.423 1013.51 779.554C1013.51 781.338 1011.89 784.254 1009.95 785.875C1011.89 786.681 1014 787.007 1016.27 787.007C1025.46 787.007 1035.99 781.175 1035.99 766.616C1037.94 769.196 1039.07 774.543 1039.07 776.975C1039.07 794.613 1026.11 801.408 1014.16 801.408C1006.39 801.408 1002.49 798.813 1001.51 798.813C998.444 798.813 998.607 804.971 996.502 804.808C992.775 804.161 989.385 795.907 989.385 787.17C989.39 781.986 990.685 776.485 993.591 772.438ZM1018.02 760.622C1016.72 758.516 1011.89 757.39 1009.63 757.39C1002.5 757.39 997.638 762.401 996.67 766.937C996.022 765.317 995.538 763.374 995.538 761.432C995.538 754.311 1000.4 745.573 1012.23 745.573C1022.56 745.573 1026.6 751.074 1028.07 751.074C1029.68 751.074 1031.3 749.453 1032.6 749.453C1034.38 749.453 1034.38 752.205 1034.38 754.153C1034.38 760.622 1031.46 771.791 1024.18 775.838C1022.88 773.085 1020.29 770.006 1016.11 768.069C1014.97 767.585 1014.49 766.616 1014.49 765.643C1014.49 763.859 1016.1 761.59 1018.02 760.622Z"/>
<path fill="black" d="M881.111 725.34C881.111 731.004 901.338 758.679 905.228 758.679C908.47 758.679 910.891 753.015 910.891 748.152C910.891 746.867 910.565 745.578 909.928 744.599C907.012 740.552 886.458 724.367 881.921 724.367C881.432 724.367 881.111 724.856 881.111 725.34ZM762.157 708.671C762.157 711.913 749.861 722.751 745.498 722.751C743.881 722.751 743.387 720.813 743.387 719.034C743.387 715.802 744.845 711.265 746.629 709.802C748.725 707.86 753.583 706.902 757.304 706.902C759.567 706.902 762.157 707.376 762.157 708.671ZM909.928 718.061C909.928 708.345 883.671 690.707 883.379 683.106C883.35 682.409 883.73 681.717 884.318 681.099C888.815 676.355 907.491 672.896 907.491 668.853C907.491 666.758 903.602 666.758 901.66 666.758C886.611 666.758 864.6 672.258 864.6 677.595C864.6 683.106 884.343 696.538 884.343 703.175C884.343 704.954 883.211 705.602 881.427 705.602C875.932 705.602 863.952 698.96 858.289 698.96C855.699 698.96 854.721 700.739 854.721 703.338C854.721 711.102 863.947 725.829 863.947 730.188C863.947 730.677 863.784 731.325 863.137 731.325C860.221 731.325 846.477 715.15 841.614 715.15C839.84 715.15 839.672 717.571 839.672 721.134V726.635C839.672 730.356 839.509 732.625 837.74 732.625C833.519 732.625 831.582 720.813 827.54 720.813C823.329 720.813 822.519 741.846 818.481 741.846C813.781 741.846 817.829 718.703 813.297 718.703C808.281 718.703 802.612 734.083 799.049 734.083C797.759 734.083 797.438 732.783 797.438 731.651C797.438 726.961 800.181 719.355 800.181 714.828C800.181 712.555 799.533 711.265 797.601 711.265C792.575 711.265 781.574 719.355 777.368 719.355C776.721 719.355 775.911 719.034 775.911 718.382C775.911 714.507 793.549 702.202 793.549 696.701C793.549 691.354 769.264 694.922 769.264 688.764C769.264 683.59 786.595 678.248 786.595 672.906C786.595 668.211 766.036 666.115 758.109 666.115C748.557 666.115 743.382 667.237 743.382 669.99C743.382 674.2 765.073 675.5 765.073 679.216C765.073 682.78 742.572 692.328 742.572 697.828C742.572 702.686 774.29 698.149 774.29 703.175C774.29 708.671 746.624 732.457 746.624 740.389C746.624 742.173 747.919 742.983 749.693 742.983C758.109 742.983 779.948 726.961 785.943 726.961C788.048 726.961 788.211 729.546 788.211 731.814C788.211 736.025 786.758 742.494 786.758 747.194C786.758 750.91 787.727 753.5 790.959 753.5C796.959 753.5 802.449 743.304 806.506 743.304C811.681 743.304 808.607 773.243 816.376 773.243C823.008 773.243 825.756 740.878 829.966 740.878C834.177 740.878 837.582 750.263 841.461 750.263C846.309 750.263 844.046 733.919 849.23 733.919C854.889 733.919 871.074 753.341 878.358 753.341C880.622 753.341 881.427 751.557 881.427 749.289C881.427 740.71 869.458 721.298 869.458 715.15C869.458 713.534 869.937 713.044 871.716 713.044C878.027 713.044 896.485 721.782 905.218 721.782C908.153 721.782 909.928 720.166 909.928 718.061ZM893.09 686.017C893.09 688.927 903.286 695.243 907.985 695.243C910.733 695.243 911.544 691.517 911.544 687.633C911.544 682.78 909.448 682.617 905.233 682.617C899.89 682.617 893.09 684.074 893.09 686.017ZM855.057 669.505C855.057 668.532 850.204 667.558 843.571 667.558C833.05 667.558 834.508 676.311 826.418 676.311C818.002 676.311 820.097 667.237 809.417 667.237C802.943 667.237 796.963 668.374 796.963 669.827C796.963 671.774 804.564 670.963 804.564 676.311C804.564 681.969 788.216 683.59 788.216 686.99C788.216 688.122 789.506 688.606 791.127 688.606C794.695 688.606 800.349 686.99 804.401 686.99C806.67 686.99 808.775 687.47 808.775 689.575C808.775 693.622 800.027 700.907 800.027 704.144C800.027 705.117 800.833 705.444 801.644 705.444C804.885 705.444 810.391 697.186 815.565 697.186C824.144 697.186 818.486 715.471 823.171 715.471C828.024 715.471 825.924 697.502 832.882 697.502C838.555 697.502 842.756 709.966 846.64 709.966C847.614 709.966 848.42 709.16 848.42 708.023C848.42 704.633 843.566 697.665 843.566 693.138C843.566 690.385 845.509 689.086 848.098 689.086C851.815 689.086 856.836 691.354 859.579 691.354C860.547 691.354 861.521 691.033 861.521 689.901C861.521 686.017 847.13 681.811 847.13 676.795C847.135 671.774 855.057 671.774 855.057 669.505Z"/>
<path fill="black" d="M1141.98 695.733C1141.98 710.129 1131.49 721.135 1112.53 724.208C1114.64 724.367 1116.58 724.367 1118.53 724.367C1140.68 724.367 1148.79 714.339 1148.79 705.928C1148.79 701.228 1146.19 697.027 1141.98 695.733ZM1114.64 712.071C1114.64 700.581 1087.15 697.665 1087.15 695.08C1087.15 692.98 1102.5 689.412 1110.43 689.249C1098.29 673.716 1080.99 675.337 1080.99 672.584C1080.99 670.963 1093.95 667.721 1105.91 667.721C1115.94 667.721 1125.33 669.99 1125.33 677.596C1125.33 681.811 1121.93 686.185 1121.93 692.649C1121.93 696.212 1123.7 699.286 1128.41 699.286C1133.44 699.286 1134.56 693.949 1134.56 688.275C1134.56 683.59 1133.76 680.027 1133.76 677.759C1133.76 670.963 1138.42 666.437 1145.06 666.437C1150.56 666.437 1151.86 668.853 1159.96 668.853C1155.58 671.453 1153.97 676.148 1153.97 678.406C1153.97 685.211 1158.35 689.901 1158.35 703.823C1158.35 729.383 1134.4 738.446 1105.1 738.446C1097.04 738.446 1088.45 737.799 1080.02 736.509C1078.73 736.346 1078.41 736.025 1078.41 735.214C1078.41 733.109 1089.91 731.972 1089.91 721.624C1089.91 717.571 1088.61 713.692 1088.61 712.239C1088.61 711.428 1089.26 710.939 1089.91 710.939C1092.34 710.939 1097.2 720.324 1106.24 720.324C1108.64 720.324 1114.64 719.514 1114.64 712.071ZM1141.01 676.311C1141.01 678.569 1142.79 680.348 1145.06 680.348C1147.33 680.348 1149.11 678.569 1149.11 676.311C1149.11 674.042 1147.33 672.258 1145.06 672.258C1142.79 672.258 1141.01 674.042 1141.01 676.311Z"/>
<path fill="black" d="M1126.63 825.841C1126.63 822.445 1118.04 822.124 1117.23 812.571C1117.07 811.118 1116.58 808.534 1114.8 808.534C1111.89 808.534 1114.15 817.434 1110.91 817.434C1103.47 817.434 1101.04 802.865 1098.29 802.865C1097.64 802.865 1096.87 803.35 1096.87 805.292C1096.87 807.076 1097.19 808.207 1097.19 810.303C1097.19 812.413 1096.7 813.871 1094.76 813.871C1090.39 813.871 1086.5 803.671 1082.77 803.671C1081.96 803.671 1081.16 804.16 1081.16 804.97C1081.16 806.913 1084.39 810.466 1084.39 812.25C1084.39 816.139 1073.86 814.029 1073.86 817.271C1073.86 818.729 1075.32 819.208 1077.26 819.208C1080.67 819.208 1086.02 817.76 1088.77 817.76C1090.39 817.76 1092.82 818.082 1092.82 820.177C1092.82 822.445 1086.98 825.356 1086.98 827.462C1086.98 828.435 1087.95 828.914 1088.76 828.914C1093.14 828.914 1100.88 821.314 1106.38 821.314C1107.35 821.314 1109.78 821.798 1109.78 823.256C1109.78 825.356 1104.28 829.073 1104.28 832.151C1104.28 832.962 1104.77 833.931 1105.74 833.931C1108.64 833.931 1112.52 826.33 1118.04 826.33C1120.14 826.33 1123.22 827.14 1124.85 827.14C1126.14 827.14 1126.63 826.33 1126.63 825.841ZM1130.84 904.334C1133.43 896.249 1136.68 890.576 1141.98 881.838C1136.68 879.095 1122.58 873.259 1122.58 863.711C1122.58 852.542 1136.5 843.805 1139.38 843.805C1140.68 843.805 1141.01 844.941 1141.01 847.047C1141.01 852.868 1138.25 862.253 1138.25 867.274C1138.25 871.801 1141.17 876.18 1143.76 876.18C1146.51 876.18 1154.12 866.469 1154.12 856.916C1154.12 839.757 1139.06 834.583 1134.4 834.583C1130.02 834.583 1122.09 841.699 1103.47 841.699C1068.68 841.699 1060.74 807.239 1060.74 792.181C1060.74 791.533 1060.9 791.37 1061.06 791.37C1061.87 791.37 1065.28 795.586 1076.29 795.586C1081.95 795.586 1087.14 794.123 1095.4 794.123C1114.79 794.123 1123.38 807.565 1135.37 824.709C1142.62 829.236 1159.95 836.525 1159.95 857.079C1159.95 875.206 1140.68 885.238 1136.01 904.66C1143.43 903.855 1147.81 890.576 1155.42 890.576C1159.31 890.576 1161.08 893.655 1161.08 898.518C1161.08 905.629 1157.03 916.319 1149.26 922.951C1149.42 922.303 1149.42 921.488 1149.42 920.519C1149.42 915.992 1147.64 909.523 1142.45 909.523C1134.39 909.523 1131.8 918.261 1127.27 925.535C1122.57 909.034 1116.25 894.139 1104.92 885.075C1093.46 875.854 1073.7 880.865 1073.7 864.037C1073.7 859.5 1076.62 853.031 1076.62 847.852C1076.62 846.073 1076.29 844.452 1075.31 843.157C1090.86 848.989 1085.35 859.337 1094.92 870.022C1100.88 876.827 1117.39 883.296 1126.95 911.293C1127.1 910.487 1127.27 908.387 1127.27 906.929C1127.27 882.975 1095.56 859.5 1092.81 849.789C1111.22 851.895 1114.46 856.432 1123.21 880.707C1125 885.728 1130.84 898.191 1130.84 904.334Z"/>
<path fill="black" d="M1042.31 733.109C1030.97 733.109 1023.52 727.45 1023.52 724.53C1023.52 723.072 1024.49 722.108 1025.8 722.108C1029.36 722.108 1037.13 727.604 1039.71 727.604C1040.37 727.604 1040.85 727.287 1040.85 726.314C1040.85 723.398 1038.1 718.545 1038.1 716.123C1038.1 715.471 1038.59 714.992 1039.56 714.992C1043.93 714.992 1050.4 716.771 1053.81 716.771C1054.95 716.771 1055.27 716.123 1055.27 715.471C1055.27 711.913 1044.74 704.954 1044.74 702.849C1044.74 700.907 1057.82 697.986 1057.82 694.922C1057.82 691.68 1040.03 693.949 1040.03 690.87C1040.03 688.606 1043.44 684.722 1043.44 682.943C1043.44 682.132 1042.78 681.811 1041.66 681.811C1040.2 681.811 1032.43 684.885 1029.18 684.885C1027.57 684.885 1025.62 684.564 1025.62 682.29C1025.62 678.569 1031.94 674.527 1041.82 674.527C1057.82 674.527 1067.38 685.532 1067.38 703.981C1067.39 727.287 1051.06 733.109 1042.31 733.109ZM1010.76 702.365C1010.76 700.581 1004.44 697.186 1004.44 695.243C1004.44 694.922 1004.75 694.759 1005.24 694.759C1007.03 694.759 1010.11 695.406 1012.55 695.406C1014.65 695.406 1014.97 686.343 1016.57 686.343C1017.7 686.343 1019.64 694.922 1021.43 694.922C1023.53 694.922 1027.41 692.491 1029.03 692.491C1029.36 692.491 1029.68 692.649 1029.68 692.98C1029.68 694.112 1025.63 698.475 1025.63 699.77C1025.63 701.228 1034.71 703.012 1034.71 704.307C1034.71 705.928 1025.47 705.765 1025.47 707.223C1025.47 708.345 1028.88 712.881 1028.88 714.339C1028.88 714.665 1028.71 714.828 1028.39 714.828C1027.09 714.828 1022.07 712.555 1020.61 712.555C1018.83 712.555 1015.95 719.192 1014.49 719.192C1014.01 719.192 1013.69 718.545 1013.69 717.734L1013.36 711.265C1013.36 710.618 1013.04 709.966 1012.23 709.966C1010.28 709.966 1006.55 709.802 1005.41 709.802C1004.6 709.802 1004.28 709.644 1004.28 709.318C1004.28 708.023 1010.76 703.496 1010.76 702.365ZM1006.05 728.893C1008.65 728.893 1009.14 735.214 1009.63 738.931C1009.95 740.878 1010.28 741.036 1011.09 741.036C1013.04 741.036 1016.11 733.593 1018.19 733.593C1021.26 733.593 1029.52 742.173 1043.29 742.173C1062.86 742.173 1081.32 728.409 1081.32 704.144C1081.32 680.674 1064.79 666.916 1041.99 666.916C1031.15 666.916 1023.2 672.258 1018.99 672.258C1016.43 672.421 1012.55 665.952 1010.6 665.952C1009.79 665.952 1008.98 667.558 1008.98 670.316C1008.98 672.1 1008.98 677.759 1007.03 677.759C1003.14 677.759 988.095 666.6 988.095 670.637C988.095 674.363 998.118 685.695 998.118 688.606C998.118 691.517 988.254 694.275 988.254 696.212C988.254 699.77 998.77 700.418 998.77 704.954C998.77 709.481 987.759 713.044 987.759 716.445C987.759 719.192 998.77 717.255 998.77 720.65C998.77 724.045 990.68 735.377 990.68 738.604C990.68 739.42 990.838 739.42 991.481 739.42C994.56 739.42 1003.79 728.893 1006.05 728.893Z"/>
<path fill="black" d="M932.745 1013.09C932.745 1014.55 932.256 1016.17 930.961 1017.78C929.192 1014.55 924.166 1012.93 921.897 1012.93C905.228 1012.93 911.539 1037.05 893.738 1037.05C886.295 1037.05 885.643 1036.08 882.9 1036.08C881.763 1036.08 881.116 1036.57 881.116 1037.54C881.116 1041.75 887.106 1052.1 903.775 1052.1C920.444 1052.1 936.471 1041.91 936.471 1029.27C936.471 1027.17 935.987 1024.92 935.013 1022.65C935.661 1021.68 937.287 1021.03 938.74 1021.03C941.324 1021.03 942.782 1023.96 945.209 1023.96C947.803 1023.96 949.745 1022 949.745 1019.42C949.745 1017.3 948.614 1015.86 946.677 1014.87C947.971 1013.91 948.94 1012.29 948.94 1010.51C948.94 1007.75 946.993 1005.17 943.751 1005.17C942.293 1005.17 941.329 1005.66 940.198 1006.77C939.881 1003.88 938.255 1001.12 935.176 1001.12C932.75 1001.12 930.961 1002.9 930.961 1005.66C930.961 1008.23 932.745 1010.34 932.745 1013.09Z"/>
<path fill="black" d="M844.056 983.001C857.004 986.218 863.478 993.181 864.768 1001.44C866.063 1009.37 867.679 1015.85 870.753 1019.08C874.8 1023.62 882.732 1027.64 889.695 1027.64C895.522 1027.64 900.207 1025.72 900.207 1020.37C900.207 1014.54 892.28 1001.43 880.627 1001.43C879.495 1001.43 878.037 1001.6 876.416 1001.6C874.958 1001.6 872.853 1001.28 871.563 1000.14C868.978 997.871 868.163 985.734 863.31 978.454C857.973 970.359 852.146 968.091 844.219 968.091C838.56 968.091 832.24 971.16 832.24 975.697C832.24 978.464 833.698 980.401 844.056 983.001ZM889.211 1019.25C884.348 1019.25 877.068 1014.06 877.068 1011.14C877.068 1008.71 879.337 1007.41 881.106 1007.41C885.159 1007.41 892.433 1012.45 892.433 1016.65C892.438 1017.78 891.628 1019.25 889.211 1019.25Z"/>
<path fill="black" d="M874.315 893.17C874.315 882.812 898.922 877.312 898.922 864.522C898.922 862.416 898.111 858.7 896.653 855.947C905.223 860.637 911.538 868.574 911.538 875.043C911.538 886.212 899.89 891.391 899.89 898.355C899.89 906.445 912.349 907.739 912.349 917.772C912.349 926.02 900.533 935.573 900.533 946.252C900.533 954.505 906.364 961.296 915.255 962.432C912.344 963.08 909.759 963.564 907.007 963.564C890.654 963.564 873.826 950.137 873.826 934.11C873.826 926.183 877.226 919.234 882.396 914.213C886.937 918.098 891.464 920.682 894.38 920.682C896.965 920.682 898.106 919.393 898.106 917.45C898.111 911.456 874.315 905.96 874.315 893.17ZM925.944 974.901C920.395 977.441 918.181 977.006 918.181 982.675C918.181 984.775 917.691 987.513 917.691 988.976C917.691 990.918 918.012 992.055 920.276 992.055C926.107 992.055 935.334 982.186 935.334 973.764C935.334 971.491 934.034 970.537 932.577 970.537C931.282 970.537 929.834 973.117 925.944 974.901ZM925.297 963.243C925.297 955.963 910.244 955.8 910.244 944.794C910.244 942.037 912.018 937.352 915.586 932.326C917.049 940.742 920.434 945.116 927.728 947.873C942.124 953.206 944.072 961.296 944.072 969.885C944.072 984.454 933.876 1002.58 907.659 1002.58C886.616 1002.58 871.563 983.797 871.563 967.938C871.563 963.564 872.694 958.716 875.447 958.716C877.879 958.716 878.684 960.653 880.626 962.591C887.916 969.885 895.843 971.817 907.333 971.817C917.691 971.822 925.297 967.617 925.297 963.243Z"/>
<path fill="black" d="M810.688 966.752C811.083 970.133 808.666 973.182 805.291 973.577C801.911 973.972 798.847 971.551 798.461 968.175C798.066 964.79 800.483 961.731 803.863 961.336C807.243 960.94 810.297 963.367 810.688 966.752ZM780.443 973.117C781.13 978.643 786.284 982.833 792.101 982.186C794.201 981.954 796.148 981.38 797.448 980.57C798.743 985.744 803.087 989.075 808.958 988.304C814.918 987.528 818.971 982.833 818.328 976.844C818.16 975.233 817.839 974.249 817.359 973.117C817.359 973.117 818.145 973.033 818.738 972.925C824.585 971.818 828.523 967.128 828.034 961.464C827.392 955.638 822.163 951.313 816.722 951.986C814.612 952.242 812.665 953.048 811.365 954.18C809.902 949.332 805.341 945.116 799.114 946.144C793.485 947.078 789.763 951.852 790.327 957.906C790.421 958.889 790.648 960.011 791.137 961.138C791.137 961.138 790.183 961.281 789.526 961.375C784.802 962.077 779.677 966.831 780.443 973.117Z"/>
</svg>